<?xml version="1.0" encoding="utf-8"?>
<!-- Generator: Adobe Illustrator 17.0.0, SVG Export Plug-In . SVG Version: 6.00 Build 0)  -->
<!DOCTYPE svg PUBLIC "-//W3C//DTD SVG 1.1//EN" "http://www.w3.org/Graphics/SVG/1.1/DTD/svg11.dtd">
<svg version="1.1" id="Layer_1" xmlns="http://www.w3.org/2000/svg" xmlns:xlink="http://www.w3.org/1999/xlink" x="0px" y="0px"
	 width="960px" height="560px" viewBox="0 0 960 560" enable-background="new 0 0 960 560" xml:space="preserve">
<path fill="#FCAB68" d="M445.4,338.695c146.6,66.3,383.8-31.9,529.1,73.2v148H-6l1.7-432.4
	C203.3,103.295,291.8,269.294,445.4,338.695z"/>
<g opacity="0.4">
	<path fill="#CC885A" d="M549.3,514.794c3.9,0,7.1-2.1,7.1-4.6s-3.2-4.6-7.1-4.6c-3.9,0-7.1,2-7.1,4.6
		C542.2,512.695,545.4,514.794,549.3,514.794z"/>
	<path fill="#CC885A" d="M596.8,546.794c9.2,0,16.7-4.8,16.7-10.8c0-5.9-7.5-10.8-16.7-10.8s-16.7,4.8-16.7,10.8
		C580,541.995,587.6,546.794,596.8,546.794z"/>
	<path fill="#CC885A" d="M217,299.294c3.9,0,7.1-2.1,7.1-4.6s-3.2-4.6-7.1-4.6s-7.1,2-7.1,4.6
		C209.9,297.195,213.1,299.294,217,299.294z"/>
	<path fill="#CC885A" d="M144.8,248.195c9.2,0,16.7-4.8,16.7-10.8s-7.5-10.8-16.7-10.8s-16.7,4.8-16.7,10.8
		S135.6,248.195,144.8,248.195z"/>
	<path fill="#CC885A" d="M106.5,217.695c6.2,0,11.3-3.3,11.3-7.2c0-4-5.1-7.2-11.3-7.2s-11.3,3.3-11.3,7.2
		C95.3,214.494,100.3,217.695,106.5,217.695z"/>
	<path fill="#CC885A" d="M103.9,242.895c3.9,0,7.1-2.1,7.1-4.6s-3.2-4.6-7.1-4.6c-3.9,0-7.1,2-7.1,4.6
		C96.8,240.795,100,242.895,103.9,242.895z"/>
	<path fill="#CC885A" d="M655.1,483.695c3.9,0,7.1-2.1,7.1-4.6s-3.2-4.6-7.1-4.6c-3.9,0-7.1,2-7.1,4.6S651.2,483.695,655.1,483.695z
		"/>
	<path fill="#CC885A" d="M678.7,513.695c9.2,0,16.7-4.8,16.7-10.8c0-5.9-7.5-10.8-16.7-10.8s-16.7,4.8-16.7,10.8
		C662,508.794,669.5,513.695,678.7,513.695z"/>
	<path fill="#CC885A" d="M190.5,310.294c6.2,0,11.3-3.3,11.3-7.2c0-4-5.1-7.2-11.3-7.2c-6.2,0-11.3,3.3-11.3,7.2
		S184.3,310.294,190.5,310.294z"/>
	<path fill="#CC885A" d="M545.7,544.794c6.2,0,11.3-3.3,11.3-7.2s-5.1-7.2-11.3-7.2s-11.3,3.3-11.3,7.2S539.5,544.794,545.7,544.794
		z"/>
	<path fill="#CC885A" d="M725.7,485.595c6.2,0,11.3-3.3,11.3-7.2c0-4-5.1-7.2-11.3-7.2s-11.3,3.3-11.3,7.2
		S719.5,485.595,725.7,485.595z"/>
	<path fill="#CC885A" d="M52.2,502.695c6.2,0,11.3-3.3,11.3-7.2c0-4-5.1-7.2-11.3-7.2s-11.3,3.3-11.3,7.2S46,502.695,52.2,502.695z"
		/>
	<path fill="#CC885A" d="M87.8,520.095c9.2,0,16.7-4.8,16.7-10.8c0-5.9-7.5-10.8-16.7-10.8s-16.7,4.9-16.7,10.8
		C71.1,515.294,78.6,520.095,87.8,520.095z"/>
	<path fill="#CC885A" d="M79.1,474.794c3.9,0,7.1-2,7.1-4.6c0-2.5-3.2-4.6-7.1-4.6c-3.9,0-7.1,2-7.1,4.6
		C72.1,472.695,75.2,474.794,79.1,474.794z"/>
	<path fill="#CC885A" d="M370.4,471.794c3.9,0,7.1-2.1,7.1-4.6s-3.2-4.6-7.1-4.6c-3.9,0-7.1,2-7.1,4.6S366.5,471.794,370.4,471.794z
		"/>
	<path fill="#CC885A" d="M401.1,459.794c6.2,0,11.3-3.3,11.3-7.2c0-4-5.1-7.2-11.3-7.2s-11.3,3.3-11.3,7.2
		S394.9,459.794,401.1,459.794z"/>
	<path fill="#CC885A" d="M59.5,370.094c3.9,0,7.1-2.1,7.1-4.6s-3.2-4.6-7.1-4.6c-3.9,0-7.1,2-7.1,4.6
		C52.4,367.995,55.6,370.094,59.5,370.094z"/>
	<path fill="#CC885A" d="M48.1,395.094c6.2,0,11.3-3.3,11.3-7.2c0-4-5.1-7.2-11.3-7.2s-11.3,3.3-11.3,7.2
		C36.9,391.794,41.9,395.094,48.1,395.094z"/>
	<path fill="#CC885A" d="M603.3,431.794c6.2,0,11.3-3.3,11.3-7.2c0-4-5.1-7.2-11.3-7.2s-11.3,3.3-11.3,7.2
		S597.1,431.794,603.3,431.794z"/>
	<path fill="#CC885A" d="M574.2,419.794c3.9,0,7.1-2.1,7.1-4.6c0-2.5-3.2-4.6-7.1-4.6c-3.9,0-7.1,2-7.1,4.6
		C567.1,417.794,570.3,419.794,574.2,419.794z"/>
	<path fill="#CC885A" d="M403.4,379.895c3.9,0,7.1-2.1,7.1-4.6s-3.2-4.6-7.1-4.6c-3.9,0-7.1,2-7.1,4.6
		C396.3,377.895,399.5,379.895,403.4,379.895z"/>
	<path fill="#CC885A" d="M214.7,219.195c3.9,0,7.1-2.1,7.1-4.6s-3.2-4.6-7.1-4.6s-7.1,2-7.1,4.6
		C207.6,217.094,210.8,219.195,214.7,219.195z"/>
</g>
</svg>
