<?xml version="1.0" encoding="utf-8"?>
<!-- Generator: Adobe Illustrator 17.0.0, SVG Export Plug-In . SVG Version: 6.00 Build 0)  -->
<!DOCTYPE svg PUBLIC "-//W3C//DTD SVG 1.1//EN" "http://www.w3.org/Graphics/SVG/1.1/DTD/svg11.dtd">
<svg version="1.1" id="Capa_1" xmlns="http://www.w3.org/2000/svg" xmlns:xlink="http://www.w3.org/1999/xlink" x="0px" y="0px"
	 width="960px" height="560px" viewBox="0 0 960 560" style="enable-background:new 0 0 960 560;" xml:space="preserve">
<g>
	<g>
		<path style="fill:#FFFFFF;stroke:#000307;stroke-miterlimit:10;" d="M488.27,378.48v-2.18c-11.15-0.12-21.82-0.73-32.12-1.58
			c-5.58,14.42-13.45,27.88-23.27,39.87c18.54,3.03,37.33,4.73,56.12,4.97L488.27,378.48z"/>
	</g>
</g>
<g>
	<g>
		<path style="fill:#FFFFFF;stroke:#000307;stroke-miterlimit:10;" d="M439.18,298.24c-8.97-42.9-40.6-77.81-82.66-91.02
			c-11.64-3.51-23.63-5.33-35.75-5.33c-30.06,0.12-59.15,11.27-81.33,31.39c-49.33,44.84-52.84,121.32-8,170.65
			s121.32,52.84,170.65,8c25.21-22.91,39.63-55.27,39.51-89.32C441.61,314.48,440.76,306.24,439.18,298.24z M320.77,306.36
			c20.48,0,38.54,13.57,44.12,33.33c6.79,24.36-7.27,49.57-31.75,56.48v10.67c0,6.67-5.45,12.12-12.12,12.12
			c-6.67,0-12.12-5.45-12.12-12.12v-10.54c-20-5.45-33.81-23.51-33.94-44.24c0-6.67,5.45-12.12,12.12-12.12
			c6.67,0,12.12,5.45,12.12,12.12c0,11.88,9.7,21.45,21.57,21.45s21.45-9.7,21.45-21.57s-9.7-21.45-21.57-21.45
			c-20.73,0-38.78-13.94-44.12-33.94c-6.42-24.24,8.12-49.45,32.48-55.99v-5.21c0-6.67,5.45-12.12,12.12-12.12
			s12.12,5.45,12.12,12.12v5.45c19.76,5.58,33.33,23.63,33.33,44.12c0,6.67-5.45,12.12-12.12,12.12s-12.12-5.45-12.12-12.12
			c0-11.88-9.7-21.57-21.57-21.57c-11.88,0-21.45,9.57-21.57,21.57C299.2,296.79,308.89,306.36,320.77,306.36z"/>
	</g>
</g>
<g>
	<g>
		<path style="fill:#FFFFFF;stroke:#000307;stroke-miterlimit:10;" d="M487.91,351.93l-0.73-42.9c-7.51-0.12-14.91-0.36-21.94-0.85
			c0.36,4.85,0.61,9.57,0.61,14.3c0,9.45-0.97,19.03-2.79,28.36C471.06,351.57,479.42,351.93,487.91,351.93z"/>
	</g>
</g>
<g>
	<g>
		<path style="fill:#FFFFFF;stroke:#000307;stroke-miterlimit:10;" d="M620.62,151.35c-8.36,4.36-17.21,7.88-26.3,10.54
			c-27.27,8.24-63.02,12.73-100.35,12.73c-35.75,0-69.81-4.12-96.11-11.76c-9.09-2.42-17.82-5.82-26.18-10.06l0.85,34.18
			c13.7,5.09,26.42,12.36,37.94,21.45c0.36,0.12,0.61,0.12,0.97,0.24c23.27,5.94,52.6,9.09,82.54,9.09
			c34.66,0,68.72-4.36,93.32-11.76c26.3-8,32.12-16.36,32.12-17.94c0-1.7-0.12-3.27,1.21-4.97V151.35L620.62,151.35z"/>
	</g>
</g>
<g>
	<g>
		<path style="fill:#FFFFFF;stroke:#000307;stroke-miterlimit:10;" d="M587.17,103.23c-24.6-7.51-58.66-11.76-93.32-11.76
			c-34.91,0-67.63,4.24-92.11,11.76c-25.57,7.76-31.15,15.39-31.27,17.82c0,0,0.12,0,0.12,0.24c0.61,2.67,7.88,10.91,33.94,18.42
			c24.12,7.03,55.87,10.91,89.32,10.91c34.66,0,68.6-4.24,93.2-11.64c26.3-7.88,32.24-16.24,32.24-17.94
			C619.29,119.47,613.47,111.23,587.17,103.23z"/>
	</g>
</g>
<g>
	<g>
		<path style="fill:#FFFFFF;stroke:#000307;stroke-miterlimit:10;" d="M759.76,438.59v-36.36c-8.12,4.12-16.6,7.64-25.45,10.3
			c-27.15,8.24-62.66,12.73-100.11,12.73c-33.21,0-65.57-3.76-91.02-10.42c-10.42-2.67-20.48-6.3-30.18-11.03l0.61,35.15
			c0,0.12,0,0.12,0,0.24c0,1.82,5.33,9.94,30.91,17.82c24.24,7.39,56.96,11.51,91.99,11.51c34.91,0,67.75-4.24,92.23-11.88
			c25.57-8,31.15-16.36,31.15-18.06L759.76,438.59L759.76,438.59z"/>
	</g>
</g>
<g>
	<g>
		<path style="fill:#FFFFFF;stroke:#000307;stroke-miterlimit:10;" d="M620.38,218.98c-8.36,4.24-17.09,7.76-26.18,10.42
			c-27.27,8.24-63.02,12.73-100.47,12.73c-18.42,0-36.72-1.21-54.9-3.51c9.82,13.57,17.09,28.85,21.69,45.09
			c10.42,0.73,21.69,1.21,33.33,1.21c0.36,0,0.85,0,1.21,0c19.88-21.82,73.33-32.72,125.32-34.18V218.98L620.38,218.98z"/>
	</g>
</g>
<g>
	<g>
		<path style="fill:#FFFFFF;stroke:#000307;stroke-miterlimit:10;" d="M733.46,345.51c-27.03,8-62.18,12.36-99.02,12.36
			c-35.75,0-69.81-4.12-96.11-11.76c-9.09-2.55-17.94-5.94-26.42-10.18l0.48,27.88l0.12,10.18c9.45,11.76,54.66,26.91,121.81,26.91
			c35.03,0,68.11-4.12,92.96-11.64c26.18-8,31.88-16.24,31.88-17.94c0-1.33,0.73-2.79,0.73-4H760v-32.12
			C751.52,339.45,742.67,343.08,733.46,345.51z"/>
	</g>
</g>
<g>
	<g>
		<path style="fill:#FFFFFF;stroke:#000307;stroke-miterlimit:10;" d="M727.76,286.73c-24.72-7.51-58.66-11.51-93.32-11.51h-2.06
			c-32.24,0-62.9,3.64-86.42,10.3c-25.09,7.03-33.69,15.03-34.78,18.3c-0.12,0.24-0.12,0.36-0.12,0.48c0,0,0,0,0.24,0.48
			c0.73,2.55,7.88,10.79,33.94,18.42c24.12,6.91,55.87,10.79,89.32,10.79c34.54,0,67.27-4,92.11-11.39
			c26.91-8,32.97-16.36,33.09-18.18v-0.12C759.64,302.48,753.58,294.48,727.76,286.73z"/>
	</g>
</g>
</svg>
