<?xml version="1.0" encoding="utf-8"?>
<!-- Generator: Adobe Illustrator 19.1.0, SVG Export Plug-In . SVG Version: 6.00 Build 0)  -->
<svg version="1.1" id="Layer_1" xmlns="http://www.w3.org/2000/svg" xmlns:xlink="http://www.w3.org/1999/xlink" x="0px" y="0px"
	 viewBox="0 0 750 750" style="enable-background:new 0 0 750 750;" xml:space="preserve">
<style type="text/css">
	.st0{fill:url(#SVGID_1_);}
	.st1{fill:url(#SVGID_2_);}
	.st2{fill:url(#SVGID_3_);}
	.st3{fill:url(#SVGID_4_);}
	.st4{fill:url(#SVGID_5_);}
	.st5{fill:url(#SVGID_6_);}
	.st6{fill:url(#SVGID_7_);}
	.st7{fill:url(#SVGID_8_);}
	.st8{fill:#FFFFFF;}
	.st9{fill:#F8BFBB;}
	.st10{opacity:0.6;fill:#F68D84;}
	.st11{fill:url(#SVGID_9_);}
	.st12{fill:#473B1E;}
	.st13{fill:#B7D671;}
	.st14{opacity:0.3;fill:url(#SVGID_10_);}
	.st15{opacity:0.3;fill:url(#SVGID_11_);}
	.st16{opacity:0.3;fill:url(#SVGID_12_);}
	.st17{fill:url(#SVGID_13_);}
	.st18{fill:url(#SVGID_14_);}
	.st19{opacity:0.5;fill:url(#SVGID_15_);}
	.st20{fill:#EEF6F7;}
	.st21{fill:url(#SVGID_16_);}
	.st22{fill:url(#SVGID_17_);}
	.st23{fill:url(#SVGID_18_);}
	.st24{fill:url(#SVGID_19_);}
	.st25{fill:url(#SVGID_20_);}
	.st26{fill:url(#SVGID_21_);}
	.st27{fill:url(#SVGID_22_);}
	.st28{fill:url(#SVGID_23_);}
	.st29{fill:url(#SVGID_24_);}
	.st30{fill:url(#SVGID_25_);}
	.st31{fill:url(#SVGID_26_);}
	.st32{fill:url(#SVGID_27_);}
	.st33{fill:url(#SVGID_28_);}
	.st34{fill:url(#SVGID_29_);}
	.st35{fill:url(#SVGID_30_);}
	.st36{fill:url(#SVGID_31_);}
	.st37{fill:url(#SVGID_32_);}
	.st38{fill:url(#SVGID_33_);}
	.st39{fill:url(#SVGID_34_);}
	.st40{fill:url(#SVGID_35_);}
	.st41{fill:url(#SVGID_36_);}
	.st42{fill:url(#SVGID_37_);}
	.st43{fill:url(#SVGID_38_);}
	.st44{fill:url(#SVGID_39_);}
	.st45{fill:url(#SVGID_40_);}
	.st46{fill:url(#SVGID_41_);}
	.st47{fill:url(#SVGID_42_);}
	.st48{fill:#F39893;}
	.st49{fill:#333333;}
	.st50{fill:#0C2A24;}
	.st51{fill:url(#SVGID_43_);}
	.st52{fill:url(#SVGID_44_);}
	.st53{fill:url(#SVGID_45_);}
	.st54{fill:#847D3D;}
	.st55{fill:url(#SVGID_46_);}
	.st56{fill:#130B5B;}
	.st57{fill:url(#SVGID_47_);}
	.st58{fill:url(#SVGID_48_);}
	.st59{fill:url(#SVGID_49_);}
	.st60{opacity:0.3;fill:#F39893;}
	.st61{fill:url(#SVGID_50_);}
	.st62{fill:url(#SVGID_51_);}
	.st63{fill:#DCE9EB;}
	.st64{fill:url(#SVGID_52_);}
	.st65{fill:url(#SVGID_53_);}
	.st66{fill:url(#SVGID_54_);}
	.st67{fill:url(#SVGID_55_);}
</style>
<linearGradient id="SVGID_1_" gradientUnits="userSpaceOnUse" x1="545.1378" y1="561.9282" x2="784.6423" y2="701.1559">
	<stop  offset="0" style="stop-color:#51B797"/>
	<stop  offset="1" style="stop-color:#177B5C"/>
</linearGradient>
<path class="st0" d="M618.7,517.9l43.9-18.2c4.4-33.9,6.2-62.5,6.2-62.5c-54.5,8.1-94.8,29.4-124.6,56.7l-0.9,54.6L524.9,514
	c-68.6,81.2-65.4,194.7-65.4,194.7s147.4-76.8,174.1-104.8c10.3-10.8,17.9-38.1,23.3-67.6C640.7,529.8,618.7,517.9,618.7,517.9z"/>
<linearGradient id="SVGID_2_" gradientUnits="userSpaceOnUse" x1="459.4909" y1="572.9818" x2="668.8141" y2="572.9818">
	<stop  offset="0" style="stop-color:#51B797"/>
	<stop  offset="1" style="stop-color:#177B5C"/>
</linearGradient>
<path class="st1" d="M668.8,437.3c0,0-164.9,160.7-209.3,271.4c0,0,147.4-76.8,174.1-104.8c10.3-10.8,17.9-38.1,23.3-67.6
	c-16.2-6.6-38.2-18.4-38.2-18.4l43.9-18.2C667,465.9,668.8,437.3,668.8,437.3z"/>
<linearGradient id="SVGID_3_" gradientUnits="userSpaceOnUse" x1="526.8552" y1="593.3785" x2="766.3586" y2="732.6055">
	<stop  offset="0" style="stop-color:#51B797"/>
	<stop  offset="1" style="stop-color:#177B5C"/>
</linearGradient>
<path class="st2" d="M719.3,569.8c-30.1-5.2-57.6-3.5-82.5,2.6c-3.6,11.4-8.1,24.8-8.1,24.8l-8.8-19.9
	c-92.5,31.5-143.9,122-143.9,122c65.6,12.5,114.1,4,149.7-13.4c-0.6-7.9-1.7-19.7-1.7-19.7l12.9,13.7c16.5-9.7,29.9-21.3,40.7-33.3
	c-6.8-7.1-14.2-15.3-14.2-15.3l23.9,3.4C712.4,601.8,719.3,569.8,719.3,569.8z"/>
<linearGradient id="SVGID_4_" gradientUnits="userSpaceOnUse" x1="475.9697" y1="637.5046" x2="719.2992" y2="637.5046">
	<stop  offset="0" style="stop-color:#51B797"/>
	<stop  offset="1" style="stop-color:#177B5C"/>
</linearGradient>
<path class="st3" d="M625.7,685.9c-0.6-7.9-1.7-19.7-1.7-19.7l12.9,13.7c16.5-9.7,29.9-21.3,40.7-33.3c-6.8-7.1-14.2-15.3-14.2-15.3
	l23.9,3.4c24.9-32.9,31.9-65,31.9-65C608.6,599.1,476,699.3,476,699.3C541.6,711.8,590.1,703.3,625.7,685.9z"/>
<linearGradient id="SVGID_5_" gradientUnits="userSpaceOnUse" x1="79.7551" y1="554.9941" x2="292.464" y2="554.9941">
	<stop  offset="0" style="stop-color:#51B797"/>
	<stop  offset="1" style="stop-color:#177B5C"/>
</linearGradient>
<path class="st4" d="M129.1,495.1l-49.3-22.8c-0.4-33.4,1.6-61.5,1.6-61.5c63.2,14.3,107.7,39.7,139,69.7l-6.7,53.2l26.6-31.5
	c69.4,86.9,49.5,196.9,49.5,196.9S126.7,607.2,99.2,576.9c-10.6-11.7-15.7-39.1-17.9-68.4C101.4,504,129.1,495.1,129.1,495.1z"/>
<linearGradient id="SVGID_6_" gradientUnits="userSpaceOnUse" x1="358.4344" y1="404.822" x2="154.5656" y2="581.9644">
	<stop  offset="0" style="stop-color:#51B797"/>
	<stop  offset="1" style="stop-color:#177B5C"/>
</linearGradient>
<path class="st5" d="M81.4,410.8c0,0,171.8,175.5,208.4,288.3c0,0-163.1-91.9-190.6-122.2c-10.6-11.7-15.7-39.1-17.9-68.4
	c20.1-4.5,47.7-13.4,47.7-13.4l-49.3-22.8C79.4,438.9,81.4,410.8,81.4,410.8z"/>
<linearGradient id="SVGID_7_" gradientUnits="userSpaceOnUse" x1="8" y1="621.9647" x2="302.7624" y2="621.9647">
	<stop  offset="0" style="stop-color:#51B797"/>
	<stop  offset="1" style="stop-color:#177B5C"/>
</linearGradient>
<path class="st6" d="M8,537c39.7-1.7,75.1,3.6,106.4,13.4c2.8,12.6,6.6,27.5,6.6,27.5l14.5-20.1c114.8,45.5,167.2,148.5,167.2,148.5
	c-86.9,4.9-148.4-10.4-191.7-33.5c2-8.4,5.2-20.8,5.2-20.8l-18.8,13c-19.9-12.4-35.4-26.5-47.5-40.7c9.8-6.7,20.7-14.5,20.7-14.5
	l-31.5,0.6C12,572.1,8,537,8,537z"/>
<linearGradient id="SVGID_8_" gradientUnits="userSpaceOnUse" x1="378.4429" y1="427.8492" x2="174.5745" y2="604.9911">
	<stop  offset="0" style="stop-color:#51B797"/>
	<stop  offset="1" style="stop-color:#177B5C"/>
</linearGradient>
<path class="st7" d="M111,672.8c2-8.4,5.2-20.8,5.2-20.8l-18.8,13c-19.9-12.4-35.4-26.5-47.5-40.7c9.8-6.7,20.7-14.5,20.7-14.5
	l-31.5,0.6C12,572.1,8,537,8,537c138.7,45.5,294.8,169.3,294.8,169.3C215.8,711.2,154.4,696,111,672.8z"/>
<path class="st8" d="M441.2,665c1,0.3,2,0.8,2.9,1.4c0.9,0.6,1.8,1.3,2.5,2.1c1.5,1.6,2.6,3.5,3.3,5.7c0.7,2.1,0.8,4.3,0.8,6.5
	c-0.1,2.2-0.5,4.4-1,6.5c-0.6,2.1-1.3,4.2-2.3,6.1c-1,1.9-2.1,3.8-3.5,5.5c-2.7,3.4-6.2,6.2-10.2,8c1.9-1,3.7-2.3,5.3-3.7
	c1.6-1.4,3.1-3,4.4-4.7c1.3-1.7,2.4-3.5,3.3-5.5c0.9-1.9,1.6-3.9,2.2-6c0.5-2.1,0.9-4.2,1-6.3c0.1-2.1,0-4.2-0.6-6.3
	c-0.6-2-1.5-4-2.9-5.6C445,667.1,443.2,665.8,441.2,665z"/>
<path class="st8" d="M447.1,668.8c0.3-1.5,0.5-3,0.6-4.5c0.1-1.5,0-3-0.1-4.5c-0.3-3-1.2-5.9-2.7-8.5c-0.2-0.3-0.4-0.7-0.6-1
	l-0.6-0.9c-0.5-0.6-0.9-1.2-1.4-1.7c-0.5-0.6-1.1-1.1-1.6-1.6l-0.9-0.7c-0.1-0.1-0.3-0.2-0.4-0.4l-0.5-0.3c-2.4-1.8-5.2-3.2-8-4.3
	c3,0.8,5.8,2,8.4,3.8c0.7,0.4,1.2,0.9,1.9,1.4c0.6,0.5,1.2,1,1.7,1.6c0.6,0.6,1,1.2,1.5,1.8l0.7,1c0.2,0.3,0.4,0.7,0.6,1
	c0.8,1.4,1.4,2.8,1.8,4.3c0.4,1.5,0.7,3,0.8,4.6C448.5,662.8,448.1,665.9,447.1,668.8z"/>
<path class="st9" d="M380.6,361.4c0,0,16.2,10,16.7,9.5c0.5-0.5,4.7-1.9,4.6-2.5c0-0.6,2.2-10.8,2.2-10.8l-12.5-11.9L380.6,361.4
	L380.6,361.4z"/>
<path class="st9" d="M507.8,318.7c0,0-19.4,6.2-22.4,9.2c-3,3.1-4.3,10-4.3,10l4.3,5.1L507.8,318.7z"/>
<path class="st10" d="M402.9,363.2c-3.1,0.4-9.6-0.1-16.4-10.1l5.2-7.4l12.5,11.9C404.1,357.6,403.5,360.4,402.9,363.2z"/>
<linearGradient id="SVGID_9_" gradientUnits="userSpaceOnUse" x1="311.836" y1="387.798" x2="495.3439" y2="387.798">
	<stop  offset="0" style="stop-color:#C7A44F"/>
	<stop  offset="1" style="stop-color:#5F9A3F"/>
</linearGradient>
<path class="st11" d="M481.4,329.6c0,0-44.4,41.9-62,37.3c0,0-4.8-0.4-14-3.3c0,0-9.4,7.6-24-7l-9.9-2.2c0,0-12.5-2.9-28.1,14.7
	c-3.5,4.6-6.7,8.9-9.5,12.9c-0.3,0.4-0.6,0.8-0.9,1.2c-33.3,47.5-17.5,51.3-17.4,51.2l86.1,11.7l3-12.5l4-20.4
	c0,0,56.5-17.8,86.5-67.7L481.4,329.6z"/>
<path class="st8" d="M416.4,344.4c-1,2.7-4,4.4-7.2,3.9c-3.2-0.5-5.5-3-5.7-5.9L416.4,344.4z"/>
<path class="st12" d="M401.8,446c0.8-2.6,1.5-5.3,2.2-7.9c0.7-2.7,1.3-5.3,1.9-8c0.6-2.7,1.1-5.4,1.6-8c0.5-2.7,1-5.4,1.4-8.1
	c0.8-5.4,1.4-10.9,1.6-16.4c0.2-5.5,0.1-11-1.3-16.3c0.5,2.7,0.7,5.4,0.8,8.1c0.1,2.7,0,5.5-0.2,8.2c-0.2,2.7-0.4,5.4-0.7,8.1
	c-0.3,2.7-0.7,5.4-1.1,8.1c-0.8,5.4-1.8,10.8-2.8,16.1c-0.5,2.7-1.1,5.4-1.7,8C403,440.7,402.4,443.4,401.8,446z"/>
<path class="st13" d="M201.2,495.9l-40.1,3.2c-13.8,1.1-26.3,8.5-33.9,20.1l0,0c-6.3,9.6-8.6,21.2-6.6,32.4l2,11.1
	c3.8,21.6,16.1,40.7,34.1,53.2l8,5.6c14.7,10.2,31.4,17.3,49,20.8l35.3,7L201.2,495.9z M205.1,618.1c-12-2.4-23.3-7.2-33.4-14.1
	l-5.5-3.8c-12.3-8.5-20.6-21.5-23.2-36.2l-1.3-7.6c-1.4-7.7,0.3-15.6,4.5-22.1l0,0c5.2-7.9,13.7-12.9,23.1-13.7l27.3-2.2l32.5,104.4
	L205.1,618.1z"/>
<linearGradient id="SVGID_10_" gradientUnits="userSpaceOnUse" x1="209.8441" y1="627.938" x2="242.7393" y2="627.938">
	<stop  offset="0" style="stop-color:#C9CD55"/>
	<stop  offset="0.5065" style="stop-color:#659C52"/>
	<stop  offset="1" style="stop-color:#248050"/>
</linearGradient>
<path class="st14" d="M221.1,643.7l19.4,3.8c1.1-6,2.2-12.1,2.2-12.5c0-0.8-12.7-26.8-12.7-26.8l-4.9,1.7l4,12.9l-19.3-3.8
	L221.1,643.7z"/>
<linearGradient id="SVGID_11_" gradientUnits="userSpaceOnUse" x1="174.6005" y1="516.1309" x2="207.9471" y2="516.1309">
	<stop  offset="0" style="stop-color:#C9CD55"/>
	<stop  offset="0.5065" style="stop-color:#659C52"/>
	<stop  offset="1" style="stop-color:#248050"/>
</linearGradient>
<path class="st15" d="M201.2,495.9l-26.6,2.1l8.6,21.5l13.4-1.1l5.6,17.9c1.4-0.6,2.4-1.1,2.6-1.2c0.4-0.3,1.9-9.2,3.2-17.6
	L201.2,495.9z"/>
<path class="st13" d="M559.8,470.2l-1.9-0.2l-180.3,4.4l-182.3-4.5l-0.3,0.2c0,0-0.5,0.3-0.6,1.2c-0.1,15.7,8.2,168.9,84.1,233.5
	c0,0,52,6.7,99.1,5.8c47.1,0.9,106.3-13.3,106.3-13.3c75.6-64.4,77-209.3,76.9-225.9C560.6,470.4,559.8,470.2,559.8,470.2z"/>
<linearGradient id="SVGID_12_" gradientUnits="userSpaceOnUse" x1="332.3658" y1="590.2925" x2="560.6442" y2="590.2925">
	<stop  offset="0" style="stop-color:#C9CD55"/>
	<stop  offset="0.5065" style="stop-color:#659C52"/>
	<stop  offset="1" style="stop-color:#248050"/>
</linearGradient>
<path class="st16" d="M560.6,471.4c0-1-0.9-1.3-0.9-1.3l-1.9-0.2l-180.3,4.4l-11-0.3c38.5,20,74.4,49.4,76.2,90.1
	c3,65.9-43,130.3-110.3,143.8c14.8,1.7,30.5,2.9,45.1,2.7c47.1,0.9,106.3-13.3,106.3-13.3C559.4,632.9,560.7,488.1,560.6,471.4z"/>
<linearGradient id="SVGID_13_" gradientUnits="userSpaceOnUse" x1="264.9615" y1="426.2391" x2="566.4133" y2="547.4415">
	<stop  offset="0" style="stop-color:#51B797"/>
	<stop  offset="1" style="stop-color:#177B5C"/>
</linearGradient>
<path class="st17" d="M560.6,471.4c0,22.6-82.3,40.9-183.3,40.9s-183-18.3-183-40.9c0-22.6,81.9-40.9,183-40.9
	S560.6,448.8,560.6,471.4z"/>
<linearGradient id="SVGID_14_" gradientUnits="userSpaceOnUse" x1="390.2219" y1="427.6288" x2="348.2673" y2="565.3019">
	<stop  offset="0" style="stop-color:#F59A2B"/>
	<stop  offset="1" style="stop-color:#E65923"/>
</linearGradient>
<path class="st18" d="M216.8,490.7l56.6,12.7l44.9,5.6l60.9,1.3l59.7-2.5l38.5-4.1l33.9-6.6l24-8.4c0,0,6.2-4.7,10.7-8
	c-26.2-15.5-93.2-26.5-171.6-26.5c-79.5,0-147.2,11.3-172.4,27.2L216.8,490.7z"/>
<linearGradient id="SVGID_15_" gradientUnits="userSpaceOnUse" x1="455.1784" y1="394.7401" x2="351.3796" y2="510.0378">
	<stop  offset="0" style="stop-color:#F59A2B"/>
	<stop  offset="1" style="stop-color:#E65923"/>
</linearGradient>
<path class="st19" d="M523.8,475.8c-0.4-0.9-1.2-1.6-2.1-1.8c-49.4-11.2-97.3-15.2-140.4-15.3v0c-0.1,0-0.2,0-0.4,0
	c-0.1,0-0.2,0-0.4,0v0c-43.1,0.1-90.9,4.1-140.4,15.3c-0.9,0.2-1.7,0.8-2.1,1.8c-0.7,1.6-0.4,4.4,6.3,7.6
	c18.4,5.3,37.6,6.2,56.5,2.7c19.7-3.7,47.1-7.5,80-8.3c32.9,0.8,60.2,4.6,80,8.3c18.9,3.6,38,2.6,56.5-2.7
	C524.2,480.2,524.5,477.5,523.8,475.8z"/>
<path class="st20" d="M224.4,472.7c6.2-2.2,12.6-3.9,19-5.5c6.4-1.6,12.8-2.9,19.3-4.1c6.5-1.2,13-2.2,19.5-3.2
	c3.3-0.5,6.5-0.9,9.8-1.3c3.3-0.4,6.5-0.8,9.8-1.1c13.1-1.4,26.2-2.4,39.4-3c13.2-0.6,26.3-0.9,39.5-0.9c26.3,0.1,52.7,1.4,78.9,4.5
	c13.1,1.6,26.1,3.6,39,6.2c6.5,1.3,12.9,2.8,19.2,4.6c6.4,1.7,12.7,3.6,18.8,6.1c-1.5-0.6-3.1-1.1-4.7-1.7c-1.6-0.5-3.1-1-4.7-1.5
	c-3.2-0.9-6.3-1.8-9.5-2.6c-6.4-1.6-12.8-3-19.3-4.3c-12.9-2.5-25.9-4.4-39-5.9c-13.1-1.4-26.2-2.5-39.3-3.2
	c-13.1-0.7-26.3-1-39.4-1c-26.3-0.1-52.6,1-78.8,3.6c-3.3,0.3-6.5,0.7-9.8,1c-3.3,0.4-6.5,0.8-9.8,1.2c-6.5,0.9-13,1.9-19.5,3
	c-6.5,1.1-12.9,2.4-19.4,3.8c-3.2,0.7-6.4,1.5-9.6,2.4C230.7,470.7,227.5,471.6,224.4,472.7z"/>
<path class="st20" d="M377.3,430.5c-101.1,0-183,18.3-183,40.9c0,22.6,81.9,40.9,183,40.9s183.3-18.3,183.3-40.9
	C560.6,448.8,478.4,430.5,377.3,430.5z M377.3,509.4c-96.9,0-175.4-17-175.4-37.9c0-20.9,78.5-37.9,175.4-37.9
	c96.9,0,175.7,17,175.7,37.9C553,492.4,474.2,509.4,377.3,509.4z"/>
<path class="st13" d="M546.7,298.5c-41.6,0.3-71.1,60.3-88.5,92c-14.9,27.1-30.9,85.5-35.3,101.9l20.3,0.9l4.2-3.9
	c9.8-20.7,36.3-74.6,56.4-100.8c23.3-30.2,46.8-51,55.5-58.3c3.5-2.9,6.1-6.8,7.4-11.1C572.3,300.4,546.7,298.5,546.7,298.5z"/>
<path class="st20" d="M421.5,492.4c0,0,19-74.6,36.4-106.3c17.5-31.7,47-91.8,88.5-92c0,0,25.6,1.8,20,20.7
	c-1.3,4.4-3.9,8.2-7.4,11.1c-8.7,7.3-32.2,28.1-55.5,58.3c-25.3,32.8-60.3,109.1-60.3,109.1L421.5,492.4z"/>
<linearGradient id="SVGID_16_" gradientUnits="userSpaceOnUse" x1="442.6455" y1="443.6043" x2="400.6908" y2="581.2778">
	<stop  offset="0" style="stop-color:#F59A2B"/>
	<stop  offset="1" style="stop-color:#E65923"/>
</linearGradient>
<path class="st21" d="M400.2,481.7c0,0,24.3,9.1,56.4,5.3c23.8-2.2-28.5,10.2-28.8,10.4c-0.3,0.3-9-1.2-16.7-4.2
	c-7.8-3-10.7,6.4-14,3.1c-3.4-3.2-2.8-4.1-1.8-5.3C396.2,489.8,400.2,481.7,400.2,481.7z"/>
<linearGradient id="SVGID_17_" gradientUnits="userSpaceOnUse" x1="390.5542" y1="482.2858" x2="473.9749" y2="482.2858">
	<stop  offset="0" style="stop-color:#F59A2B"/>
	<stop  offset="1" style="stop-color:#E65923"/>
</linearGradient>
<path class="st22" d="M390.6,475.6c1.8,1,3.7,1.8,5.6,2.6c1.9,0.8,3.8,1.5,5.7,2.2c3.9,1.4,7.8,2.5,11.8,3.4
	c7.4,1.7,16.1,2.7,24.2,2.7c8.8,0.1,16.4-1,24.3-2.2c2-0.3,4-0.7,6-1.2c1-0.2,1.9-0.5,2.9-0.9c1.9-0.8,2.3-1.3-0.7-2.4
	c-0.9-0.3-1.9-0.6-2.9-0.9c-2-0.5-4-0.9-6-1.3c2.1,0.1,4.1,0.3,6.2,0.6c1,0.2,2,0.4,3.1,0.6c3.7,1,4.6,2.9,0.9,4.7
	c-1,0.5-2,0.8-3,1.1c-2,0.6-4,1.1-6.1,1.5c-9.6,2.1-17.4,2.8-24.7,2.8c-8.3-0.1-16.6-1-24.7-3.3c-3.9-1.1-7.7-2.4-11.8-4.1
	c-1.9-0.8-3.8-1.7-5.6-2.7C394,477.8,392.2,476.8,390.6,475.6z"/>
<path class="st9" d="M483.8,331.3c-0.2,0-0.4,0-0.5,0c0,0.2,0,0.3,0,0.3l2.9,3.4c0.5,0.1,0.8,0.2,0.8,0.2s5.7-0.2,9,1.5
	C499.5,338.4,495.8,330.3,483.8,331.3z"/>
<g>
	<path class="st12" d="M365.6,377.2c-1.5,3.3-3,6.5-4.6,9.8c-1.6,3.2-3.2,6.5-4.8,9.7l-4.9,9.7l-2.4,4.8c-0.8,1.6-1.6,3.2-2.4,4.9
		c1.2-3.4,2.7-6.7,4.2-10c1.5-3.3,3.1-6.5,4.7-9.7c1.6-3.2,3.3-6.4,5-9.6C362,383.4,363.8,380.3,365.6,377.2z"/>
</g>
<g>
	<g>
		<path class="st12" d="M339.6,416.2c4.5-0.7,9.1-0.8,13.7-0.8c4.6,0.1,9.1,0.5,13.6,1.3c8.8,1.5,18.3,4.2,25.7,9.1
			c-8-4.4-16.7-6.8-25.8-8.3c-4.5-0.8-9-1.2-13.5-1.4c-2.3-0.1-4.5-0.2-6.8-0.1C344.2,416,341.9,416,339.6,416.2z"/>
	</g>
</g>
<path class="st9" d="M401.5,428.2c-4.7-2.8-10.7-2.8-15.6-2.1c-0.2,0-0.5,0.1-0.7,0.1c-3.8,0.8-3.7,2.9-3.4,3.9
	c0.1,0.3,0.4,0.5,0.7,0.5c0.6,0,1.4,0.1,2.4,0.2c6,0.7,0,7.6,2.3,7.7c3,0.1,2.4-6.4,4-6.2c2.9,0.3-0.8,6,1.1,6.4
	c2.1,0.4,0.6-6.6,4-6.3c1.8,0.2-0.7,6.5,1.4,6.1c2.2-0.4,0.6-6.1,2.6-5.9c3,0.3-0.9,5.7,1.3,6.1C402.9,439,404.9,430.2,401.5,428.2z
	"/>
<path class="st12" d="M356.5,364.1c-0.3,0.5-0.6,1-1,1.5c-0.4,0.5-0.7,0.9-1.1,1.3c-0.4,0.4-0.8,0.8-1.3,1.2c-0.4,0.4-0.9,0.7-1.5,1
	c0.3-0.5,0.6-1,1-1.5c0.4-0.5,0.7-0.9,1.1-1.3c0.4-0.4,0.8-0.8,1.3-1.2C355.5,364.8,356,364.4,356.5,364.1z"/>
<path class="st12" d="M362.8,370.4c0.1,0.6,0.2,1.2,0.2,1.8c0,0.6,0,1.2,0,1.8c0,0.6-0.1,1.2-0.2,1.7c-0.1,0.6-0.3,1.2-0.5,1.7
	c-0.1-0.6-0.2-1.2-0.2-1.8c0-0.6,0-1.2,0-1.8c0-0.6,0.1-1.2,0.2-1.7C362.4,371.6,362.5,371,362.8,370.4z"/>
<path class="st12" d="M413.3,371.7c0.6,0,1.2,0,1.8,0.1c0.6,0.1,1.2,0.2,1.7,0.3c0.6,0.1,1.1,0.3,1.7,0.5c0.6,0.2,1.1,0.4,1.6,0.8
	c-0.6,0-1.2,0-1.8-0.1c-0.6-0.1-1.2-0.2-1.7-0.3c-0.6-0.1-1.1-0.3-1.7-0.5C414.4,372.2,413.8,372,413.3,371.7z"/>
<path class="st12" d="M429.6,386.9c0.4-0.5,0.9-0.8,1.3-1.2c0.5-0.3,1-0.7,1.5-1c0.5-0.3,1-0.6,1.6-0.8c0.5-0.2,1.1-0.5,1.7-0.6
	c-0.4,0.5-0.9,0.8-1.3,1.2c-0.5,0.3-1,0.7-1.5,1c-0.5,0.3-1,0.6-1.6,0.8C430.8,386.6,430.2,386.8,429.6,386.9z"/>
<path class="st12" d="M442.6,366.5c0.4-0.5,0.8-0.9,1.3-1.3c0.4-0.4,0.9-0.7,1.4-1.1c0.5-0.3,1-0.6,1.5-0.9c0.5-0.3,1.1-0.5,1.6-0.7
	c-0.4,0.5-0.8,0.9-1.3,1.3c-0.4,0.4-0.9,0.7-1.4,1.1c-0.5,0.3-1,0.6-1.5,0.9C443.7,366.1,443.2,366.4,442.6,366.5z"/>
<path class="st12" d="M448.3,376.1c0.6-0.1,1.2-0.1,1.8-0.1c0.6,0,1.2,0.1,1.8,0.1c0.6,0.1,1.2,0.2,1.7,0.3c0.6,0.1,1.1,0.3,1.7,0.6
	c-0.6,0.1-1.2,0.1-1.8,0.1c-0.6,0-1.2-0.1-1.8-0.1c-0.6-0.1-1.2-0.2-1.7-0.3C449.5,376.6,448.9,376.4,448.3,376.1z"/>
<path class="st12" d="M464.6,367.2c0.1-0.6,0.4-1.1,0.6-1.7c0.2-0.5,0.5-1.1,0.8-1.6c0.3-0.5,0.6-1,1-1.5s0.7-0.9,1.2-1.4
	c-0.1,0.6-0.4,1.1-0.6,1.7c-0.2,0.5-0.5,1.1-0.8,1.6c-0.3,0.5-0.6,1-1,1.5C465.4,366.3,465,366.8,464.6,367.2z"/>
<path class="st12" d="M415.6,397.6c0.6,0,1.2,0,1.8,0.1c0.6,0.1,1.2,0.2,1.7,0.3c0.6,0.1,1.1,0.3,1.7,0.5c0.6,0.2,1.1,0.4,1.7,0.7
	c-0.6,0-1.2,0-1.8-0.1c-0.6-0.1-1.2-0.2-1.7-0.3c-0.6-0.1-1.1-0.3-1.7-0.5C416.7,398.2,416.2,397.9,415.6,397.6z"/>
<path class="st12" d="M351.3,381.5c0.1,0.6,0.2,1.2,0.2,1.8c0,0.6,0,1.2,0,1.8c0,0.6-0.1,1.2-0.2,1.7c-0.1,0.6-0.3,1.2-0.5,1.7
	c-0.1-0.6-0.2-1.2-0.2-1.8c0-0.6,0-1.2,0-1.8c0-0.6,0.1-1.2,0.2-1.7C351,382.6,351.1,382,351.3,381.5z"/>
<path class="st12" d="M329.8,420c0.1,0.6,0.2,1.2,0.2,1.8c0,0.6,0,1.2,0,1.8c0,0.6-0.1,1.2-0.2,1.7c-0.1,0.6-0.2,1.2-0.5,1.7
	c-0.1-0.6-0.2-1.2-0.2-1.8c0-0.6,0-1.2,0-1.8c0-0.6,0.1-1.2,0.2-1.7C329.4,421.1,329.6,420.5,329.8,420z"/>
<path class="st12" d="M339.3,386.2c-0.3,0.5-0.7,1-1.1,1.4c-0.4,0.4-0.8,0.8-1.3,1.2c-0.4,0.4-0.9,0.7-1.4,1.1
	c-0.5,0.3-1,0.6-1.6,0.9c0.3-0.5,0.7-1,1.1-1.4c0.4-0.4,0.8-0.8,1.3-1.2c0.4-0.4,0.9-0.7,1.4-1.1
	C338.2,386.7,338.7,386.4,339.3,386.2z"/>
<path class="st12" d="M323.8,410.5c-0.1,0.6-0.2,1.2-0.4,1.7c-0.2,0.6-0.4,1.1-0.6,1.6c-0.2,0.5-0.5,1.1-0.8,1.6
	c-0.3,0.5-0.6,1-1,1.5c0.1-0.6,0.2-1.2,0.4-1.7c0.2-0.6,0.4-1.1,0.6-1.6c0.2-0.5,0.5-1.1,0.8-1.6
	C323.1,411.4,323.4,410.9,323.8,410.5z"/>
<path class="st12" d="M342,400.1c-0.3,0.5-0.7,1-1.1,1.4c-0.4,0.4-0.8,0.8-1.3,1.2c-0.4,0.4-0.9,0.7-1.4,1.1c-0.5,0.3-1,0.6-1.6,0.9
	c0.3-0.5,0.7-1,1.1-1.4c0.4-0.4,0.8-0.8,1.3-1.2c0.4-0.4,0.9-0.7,1.4-1.1C341,400.6,341.5,400.3,342,400.1z"/>
<g>
	<polygon class="st20" points="331.7,204.5 331.7,204.5 331.7,204.5 286.4,204.4 245.8,223.4 245.7,223.4 245.7,223.4 245.7,223.4 
		245.7,223.4 291.1,223.5 331.7,204.5 331.7,204.5 	"/>
	<polygon class="st13" points="258.6,282.3 245.8,223.4 291.1,223.5 304,282.4 	"/>
	<linearGradient id="SVGID_18_" gradientUnits="userSpaceOnUse" x1="210.7053" y1="179.4862" x2="485.431" y2="343.5754">
		<stop  offset="0" style="stop-color:#C9CD55"/>
		<stop  offset="0.5065" style="stop-color:#659C52"/>
		<stop  offset="1" style="stop-color:#248050"/>
	</linearGradient>
	<polygon class="st23" points="331.7,204.5 344.6,263.4 304,282.4 291.1,223.5 	"/>
</g>
<g>
	<polygon class="st20" points="416.6,33 416.6,33 416.6,33 369.2,51.6 334.6,88.1 334.6,88.1 334.6,88.1 334.6,88.1 334.6,88.1 
		382,69.6 416.5,33 416.6,33 	"/>
	<polygon class="st13" points="372.3,144.3 334.6,88.1 382,69.6 419.7,125.7 	"/>
	<linearGradient id="SVGID_19_" gradientUnits="userSpaceOnUse" x1="309.3171" y1="14.386" x2="584.0424" y2="178.475">
		<stop  offset="0" style="stop-color:#C9CD55"/>
		<stop  offset="0.5065" style="stop-color:#659C52"/>
		<stop  offset="1" style="stop-color:#248050"/>
	</linearGradient>
	<polygon class="st24" points="416.5,33 454.3,89.1 419.7,125.7 382,69.6 	"/>
</g>
<linearGradient id="SVGID_20_" gradientUnits="userSpaceOnUse" x1="46.8599" y1="707.9852" x2="741.9479" y2="707.9852">
	<stop  offset="0" style="stop-color:#51B797"/>
	<stop  offset="1" style="stop-color:#177B5C"/>
</linearGradient>
<path class="st25" d="M738.4,711.7H50.4c-1.9,0-3.5-1.6-3.5-3.5v-0.4c0-1.9,1.6-3.5,3.5-3.5h688.1c1.9,0,3.5,1.6,3.5,3.5v0.4
	C741.9,710.1,740.4,711.7,738.4,711.7z"/>
<linearGradient id="SVGID_21_" gradientUnits="userSpaceOnUse" x1="403.6834" y1="-67.2267" x2="634.8996" y2="369.0999">
	<stop  offset="0" style="stop-color:#F59A2B"/>
	<stop  offset="1" style="stop-color:#E65923"/>
</linearGradient>
<path class="st26" d="M521.7,211l-1-1.1c0.2-0.2,23.5-21.3,45.9-26l0.3,1.5C544.9,190,521.9,210.8,521.7,211z"/>
<linearGradient id="SVGID_22_" gradientUnits="userSpaceOnUse" x1="224.8495" y1="27.5387" x2="456.0666" y2="463.8672">
	<stop  offset="0" style="stop-color:#F59A2B"/>
	<stop  offset="1" style="stop-color:#E65923"/>
</linearGradient>
<path class="st27" d="M259.7,77.4c-0.2-0.3-17.4-26-37.5-35.9l0.7-1.4c20.5,10.1,38,36.1,38.1,36.4L259.7,77.4z"/>
<path class="st13" d="M253.3,167.1c-0.2-0.3-17.4-26-37.5-35.9l0.7-1.4c20.5,10.1,38,36.1,38.1,36.4L253.3,167.1z"/>
<path class="st13" d="M615.9,263.4l-0.5-1.5c0.3-0.1,30.2-9.5,52.5-4.5l-0.3,1.5C645.8,254,616.2,263.3,615.9,263.4z"/>
<linearGradient id="SVGID_23_" gradientUnits="userSpaceOnUse" x1="507.9857" y1="-46.1647" x2="617.3787" y2="359.0866">
	<stop  offset="0" style="stop-color:#51B797"/>
	<stop  offset="1" style="stop-color:#177B5C"/>
</linearGradient>
<path class="st28" d="M592.7,367.5l-0.7-1.4c0.3-0.1,28.5-13.8,51.3-12.1l-0.1,1.5C620.8,353.8,592.9,367.4,592.7,367.5z"/>
<linearGradient id="SVGID_24_" gradientUnits="userSpaceOnUse" x1="514.8077" y1="-126.1148" x2="746.0255" y2="310.215">
	<stop  offset="0" style="stop-color:#F59A2B"/>
	<stop  offset="1" style="stop-color:#E65923"/>
</linearGradient>
<path class="st29" d="M654.7,192.4l-0.7-1.4c0.3-0.1,28.5-13.8,51.3-12.1l-0.1,1.5C682.8,178.8,655,192.3,654.7,192.4z"/>
<linearGradient id="SVGID_25_" gradientUnits="userSpaceOnUse" x1="521.5525" y1="-49.8268" x2="630.9454" y2="355.4239">
	<stop  offset="0" style="stop-color:#51B797"/>
	<stop  offset="1" style="stop-color:#177B5C"/>
</linearGradient>
<path class="st30" d="M543.1,124l-1.1-1.1c0.2-0.2,22.6-22.3,44.7-28l0.4,1.5C565.4,102.1,543.4,123.8,543.1,124z"/>
<linearGradient id="SVGID_26_" gradientUnits="userSpaceOnUse" x1="358.8034" y1="-43.4442" x2="590.0205" y2="392.8843">
	<stop  offset="0" style="stop-color:#F59A2B"/>
	<stop  offset="1" style="stop-color:#E65923"/>
</linearGradient>
<path class="st31" d="M441.3,163.1l-1.3-0.7c0.1-0.3,15.3-27.8,34.9-39.5l0.8,1.3C456.4,135.7,441.4,162.9,441.3,163.1z"/>
<linearGradient id="SVGID_27_" gradientUnits="userSpaceOnUse" x1="113.9173" y1="86.3233" x2="345.1335" y2="522.6501">
	<stop  offset="0" style="stop-color:#F59A2B"/>
	<stop  offset="1" style="stop-color:#E65923"/>
</linearGradient>
<path class="st32" d="M144.3,119c-14-17.6-42.8-28.8-43.1-29l0.6-1.4c0.3,0.1,29.5,11.5,43.8,29.4L144.3,119z"/>
<linearGradient id="SVGID_28_" gradientUnits="userSpaceOnUse" x1="123.1784" y1="81.4158" x2="354.3958" y2="517.7449">
	<stop  offset="0" style="stop-color:#F59A2B"/>
	<stop  offset="1" style="stop-color:#E65923"/>
</linearGradient>
<path class="st33" d="M236.8,271.2c-14-17.6-42.8-28.8-43.1-29l0.6-1.4c0.3,0.1,29.5,11.5,43.8,29.4L236.8,271.2z"/>
<linearGradient id="SVGID_29_" gradientUnits="userSpaceOnUse" x1="22.5897" y1="84.8624" x2="131.9825" y2="490.1131">
	<stop  offset="0" style="stop-color:#51B797"/>
	<stop  offset="1" style="stop-color:#177B5C"/>
</linearGradient>
<path class="st34" d="M49,281.3l-0.4-1.5c0.3-0.1,30.6-8.2,52.7-2.2l-0.4,1.5C79.2,273.2,49.3,281.2,49,281.3z"/>
<linearGradient id="SVGID_30_" gradientUnits="userSpaceOnUse" x1="75.1243" y1="106.8804" x2="306.3414" y2="543.2089">
	<stop  offset="0" style="stop-color:#F59A2B"/>
	<stop  offset="1" style="stop-color:#E65923"/>
</linearGradient>
<path class="st35" d="M89.4,165.3l0.4-1.5c0.3,0.1,30.3,9.2,45.9,26l-1.1,1C119.3,174.4,89.7,165.4,89.4,165.3z"/>
<linearGradient id="SVGID_31_" gradientUnits="userSpaceOnUse" x1="408.3343" y1="-69.6923" x2="639.5513" y2="366.636">
	<stop  offset="0" style="stop-color:#F59A2B"/>
	<stop  offset="1" style="stop-color:#E65923"/>
</linearGradient>
<circle class="st36" cx="570.6" cy="236.4" r="4.5"/>
<linearGradient id="SVGID_32_" gradientUnits="userSpaceOnUse" x1="278.7057" y1="15.727" x2="388.0986" y2="420.9778">
	<stop  offset="0" style="stop-color:#51B797"/>
	<stop  offset="1" style="stop-color:#177B5C"/>
</linearGradient>
<circle class="st37" cx="311.8" cy="138.5" r="4.5"/>
<linearGradient id="SVGID_33_" gradientUnits="userSpaceOnUse" x1="140.5285" y1="72.2216" x2="371.7458" y2="508.5503">
	<stop  offset="0" style="stop-color:#F59A2B"/>
	<stop  offset="1" style="stop-color:#E65923"/>
</linearGradient>
<circle class="st38" cx="301.5" cy="376" r="4.5"/>
<linearGradient id="SVGID_34_" gradientUnits="userSpaceOnUse" x1="31.8157" y1="82.3721" x2="141.2087" y2="487.6235">
	<stop  offset="0" style="stop-color:#51B797"/>
	<stop  offset="1" style="stop-color:#177B5C"/>
</linearGradient>
<circle class="st39" cx="71" cy="227.4" r="4.5"/>
<linearGradient id="SVGID_35_" gradientUnits="userSpaceOnUse" x1="3.5475" y1="144.8099" x2="234.7648" y2="581.1386">
	<stop  offset="0" style="stop-color:#F59A2B"/>
	<stop  offset="1" style="stop-color:#E65923"/>
</linearGradient>
<circle class="st40" cx="113.3" cy="351.9" r="4.5"/>
<linearGradient id="SVGID_36_" gradientUnits="userSpaceOnUse" x1="-39.1158" y1="167.4181" x2="192.1013" y2="603.7465">
	<stop  offset="0" style="stop-color:#F59A2B"/>
	<stop  offset="1" style="stop-color:#E65923"/>
</linearGradient>
<circle class="st41" cx="41.7" cy="320" r="4.5"/>
<linearGradient id="SVGID_37_" gradientUnits="userSpaceOnUse" x1="171.539" y1="55.7887" x2="402.7562" y2="492.1174">
	<stop  offset="0" style="stop-color:#F59A2B"/>
	<stop  offset="1" style="stop-color:#E65923"/>
</linearGradient>
<circle class="st42" cx="185.8" cy="82.7" r="4.5"/>
<linearGradient id="SVGID_38_" gradientUnits="userSpaceOnUse" x1="577.9433" y1="-65.0486" x2="687.3361" y2="340.202">
	<stop  offset="0" style="stop-color:#51B797"/>
	<stop  offset="1" style="stop-color:#177B5C"/>
</linearGradient>
<circle class="st43" cx="676.3" cy="299.4" r="4.5"/>
<linearGradient id="SVGID_39_" gradientUnits="userSpaceOnUse" x1="398.5387" y1="-16.6206" x2="507.9316" y2="388.6304">
	<stop  offset="0" style="stop-color:#51B797"/>
	<stop  offset="1" style="stop-color:#177B5C"/>
</linearGradient>
<circle class="st44" cx="474.3" cy="264.1" r="4.5"/>
<linearGradient id="SVGID_40_" gradientUnits="userSpaceOnUse" x1="115.8785" y1="59.6801" x2="225.2716" y2="464.9316">
	<stop  offset="0" style="stop-color:#51B797"/>
	<stop  offset="1" style="stop-color:#177B5C"/>
</linearGradient>
<circle class="st45" cx="177.8" cy="289.1" r="4.5"/>
<circle class="st13" cx="545.2" cy="410.1" r="4.5"/>
<circle class="st13" cx="627.4" cy="126.8" r="4.5"/>
<linearGradient id="SVGID_41_" gradientUnits="userSpaceOnUse" x1="452.1343" y1="-92.9033" x2="683.3513" y2="343.4249">
	<stop  offset="0" style="stop-color:#F59A2B"/>
	<stop  offset="1" style="stop-color:#E65923"/>
</linearGradient>
<circle class="st46" cx="527.5" cy="49.4" r="4.5"/>
<linearGradient id="SVGID_42_" gradientUnits="userSpaceOnUse" x1="167.1985" y1="58.0888" x2="398.4156" y2="494.4173">
	<stop  offset="0" style="stop-color:#F59A2B"/>
	<stop  offset="1" style="stop-color:#E65923"/>
</linearGradient>
<circle class="st47" cx="297" cy="303" r="4.5"/>
<ellipse transform="matrix(-0.909 -0.4169 0.4169 -0.909 675.377 816.0878)" class="st48" cx="426.8" cy="334.3" rx="4.5" ry="5.6"/>
<path class="st9" d="M421.2,349.2c0.8-1.2,1.4-2.5,2-3.9c1.5-3.6,2.4-7.5,2.9-10.9c0.1-0.7,0.2-1.5,0.4-2.2c0.6-2.9,0.8-6,0.2-9.3
	c-1.8-10.4-10.3-18.5-20.8-19.8c-14.1-1.7-26.3,9-26.9,22.8c-1.5-0.9-3.1-1.2-4.7-0.6c-2.9,1.2-4.1,5-2.7,8.7c1.4,3.6,5,5.6,7.9,4.5
	c0.4-0.2,0.8-0.4,1.1-0.6c0.7,11.8,9.9,21.3,21.5,21.6c5.7,0.1,10.9-1.9,14.9-5.5c0.3-0.2,0.5-0.4,0.8-0.7
	C419.1,352.2,420.2,350.7,421.2,349.2z"/>
<circle class="st49" cx="398.3" cy="329" r="2.1"/>
<circle class="st49" cx="416.3" cy="330.6" r="2.1"/>
<path class="st50" d="M403,324.9c-1-0.4-2-0.8-3-1.1c-1-0.3-2-0.4-2.9-0.4c-1,0-1.9,0.2-2.9,0.5l-0.4,0.1c-0.1,0-0.2,0.1-0.4,0.1
	l-0.7,0.3c-0.5,0.2-0.9,0.5-1.5,0.7c0.3-0.4,0.7-0.9,1.1-1.3c0.4-0.3,0.9-0.8,1.4-1c1-0.6,2.2-0.9,3.3-0.9c1.2,0,2.3,0.3,3.4,0.8
	C401.5,323.3,402.4,324,403,324.9z"/>
<path class="st50" d="M411.5,325.6c0.8-0.8,1.8-1.4,2.8-1.8c1.1-0.4,2.3-0.4,3.4-0.2c1.2,0.2,2.3,0.7,3.2,1.4
	c0.5,0.3,0.8,0.8,1.2,1.2c0.3,0.4,0.6,0.9,0.9,1.4c-0.5-0.3-0.9-0.6-1.4-0.9l-0.7-0.4c-0.1-0.1-0.2-0.1-0.3-0.2l-0.3-0.2
	c-0.9-0.5-1.8-0.7-2.8-0.9c-0.9-0.2-1.9-0.2-2.9-0.1C413.6,325.1,412.5,325.3,411.5,325.6z"/>
<path class="st48" d="M407.3,327.3c0.7,1.1,1.4,2.3,2,3.5c0.6,1.2,1.1,2.5,1.5,3.8c0.2,0.7,0.4,1.3,0.4,2c0,0.2,0,0.4,0,0.6
	c0,0.1,0,0.2-0.1,0.3c0,0.1-0.1,0.2-0.1,0.3c0,0.1-0.1,0.1-0.1,0.2l-0.1,0.1c-0.1,0.1-0.1,0.1-0.2,0.2c-0.1,0.1-0.3,0.2-0.4,0.3
	c-0.6,0.4-1.2,0.7-1.9,0.9c-0.6,0.2-1.3,0.4-1.9,0.6c1.2-0.6,2.4-1.2,3.4-2c0.1-0.1,0.2-0.2,0.4-0.3l0.2-0.2l0.1-0.1c0,0,0,0,0,0
	c0.1-0.1,0.1-0.5,0-0.8c-0.1-0.6-0.2-1.2-0.4-1.9c-0.4-1.3-0.8-2.5-1.3-3.8C408.2,329.8,407.7,328.6,407.3,327.3z"/>
<path class="st50" d="M388.2,296.3c0,0,7.3-5.4,22.6-3.1c11.5,1.7,16.7,7.9,18.5,16c1,4.3,0.7,8.8-0.5,13.1l-1.9,6.7
	c0,0-4.3-3.5-8.5-15.7c0,0-9.4,9.3-13.1,7.8c-3.7-1.5,2.1-8.3,2.1-8.3s-18.1,14.4-28.5,13.5c0,0-4.8-19,3.5-25.1c0,0-5.8-0.2-6-1.4
	c-0.2-1.2,3-2.7,8.5-1.6c0,0-3.3-8.4-1-9C386.1,288.5,388.2,296.3,388.2,296.3z"/>
<path class="st8" d="M412.3,345.1c-1,2.5-4.2,4-7.7,3.6c-3.6-0.4-6.3-2.7-6.6-5.3L412.3,345.1z"/>
<g>
	<linearGradient id="SVGID_43_" gradientUnits="userSpaceOnUse" x1="386.5871" y1="700.4841" x2="408.9636" y2="700.4841">
		<stop  offset="0" style="stop-color:#F59A2B"/>
		<stop  offset="1" style="stop-color:#E65923"/>
	</linearGradient>
	<path class="st51" d="M409,696.5v6.8c0,0.6-0.6,1-1.3,1H388c-1.4,0-2-1.5-0.8-2.1l11-5.7C398.3,696.5,402.6,699.1,409,696.5z"/>
	<linearGradient id="SVGID_44_" gradientUnits="userSpaceOnUse" x1="439.1132" y1="700.7025" x2="460.2466" y2="700.7025">
		<stop  offset="0" style="stop-color:#F59A2B"/>
		<stop  offset="1" style="stop-color:#E65923"/>
	</linearGradient>
	<path class="st52" d="M460.2,697v6.5c0,0.5-0.5,1-1.2,1h-18.6c-1.3,0-1.9-1.4-0.7-2l10.4-5.4C450.2,697,454.3,699.4,460.2,697z"/>
	<path class="st9" d="M461.2,549.6c-0.1,0.3-0.6,0.4-0.8,0.1c-1.6-2.4-6.8-9.8-7.5-9.5c-0.8,0.3,3.6,7.1,3.2,7.7
		c-0.5,0.7-4.7-6-5.5-5.5c-0.8,0.5,3.2,6.5,2.9,6.8c-0.3,0.3-4.8-5-5.4-5c-0.7,0,3.4,6.2,3.2,6.7c-0.2,0.5-4.5-2.9-4.8-2.5
		c-0.3,0.3-0.6,0.5,6.8,10.8c0,0,3.2,3.3,3.4,4.6l3.9,1.2l4-3.9c0,0,0.4-16.4-0.2-16.7C463.8,544,463.3,544.3,461.2,549.6z"/>
	<polygon class="st12" points="475.1,647.6 460.2,698.5 448,698.1 447.8,650.8 466.7,637.8 	"/>
	<linearGradient id="SVGID_45_" gradientUnits="userSpaceOnUse" x1="417.2861" y1="616.6069" x2="499.0203" y2="588.637">
		<stop  offset="0" style="stop-color:#09503E"/>
		<stop  offset="1" style="stop-color:#0C3222"/>
	</linearGradient>
	<path class="st53" d="M534.2,541.5c0,0-31.7,39-37.1,45.2L464.9,555c0,0-6.5,3.6-9.8,7.4c0,0,13,29.9,24.1,37.8l22.3,15l-4.3,10.2
		l8,6.2l4.2-10.1l11.5-25.5l10.9-33.9l2.1-16.8L534.2,541.5z"/>
	<path class="st8" d="M497.1,586.8c0.7,0.7,1.4,1.4,2.1,2.1c0.3,0.3,0.7,0.7,1,1.1c0.3,0.4,0.6,0.7,1,1.1c-0.4-0.9-1-1.8-1.6-2.5
		c-0.3-0.4-0.7-0.7-1.1-1C498,587.2,497.5,587,497.1,586.8z"/>
	<path class="st20" d="M534,545.4c0,0-10.6,15.6-17.9,49.5c-2.2,10.1-10.6,37.5-10.6,37.5l15.6,10.5c0,0,8.4-26.9,8.4-28
		c0-1.1,7.9-50.4,7.9-50.4l6.5-18.3L534,545.4z"/>
	<path class="st54" d="M519.6,641.8c0,0-26.8-24-47.5-28.8c-20.7-4.8-74.1,83.5-74.1,83.5l11,5.2c0,0,48.1-34.6,57.2-50.1
		c0,0,39.3,50.1,52.4,51.3c13.1,1.2,29.9,5.9,45.1-21C579,655,519.6,641.8,519.6,641.8z"/>
	<path class="st9" d="M546.2,524.1l5.9,16c0,0-4.3,9.8-18.7,6.2c0,0,1.5-3.4-0.9-10.2C530,529.1,546.2,524.1,546.2,524.1z"/>
	<path class="st10" d="M546.2,524.1l2.8,7.5c-1.3,5.6-6,9.5-15.1,11c-0.1-1.6-0.4-3.8-1.4-6.6C530,529.1,546.2,524.1,546.2,524.1z"
		/>
	<path class="st12" d="M422.2,532.6l2.2,76.3c0.1,1.7,1.4,3.1,3,3l71.1-2.1c1.6,0,2.9-1.5,2.8-3.2l-2.2-76.3c0-1.2-0.7-2.3-1.8-2.8
		l-34.5-15.3c-1.7-0.8-3.7-0.7-5.4,0.2l-33.6,17.3C422.8,530.2,422.2,531.3,422.2,532.6z M458.5,518.7c0.1-1.2,1.1-2.1,2.3-2
		c1.2,0.1,2.1,1.1,2,2.3c-0.1,1.2-1.1,2.1-2.3,2C459.3,520.9,458.4,519.9,458.5,518.7z"/>
	<g>
		<g>
			<path class="st20" d="M461.3,517.4L461.3,517.4c0.3-0.1,0.5-0.3,0.5-0.6c0-0.8,0.1-2.5,0.9-4.6c0.1-0.3,0-0.7-0.3-0.8l0,0
				c-0.4-0.2-0.8,0-0.9,0.3c-0.9,2.2-1,4.1-1,5C460.4,517.2,460.9,517.5,461.3,517.4z"/>
		</g>
	</g>
	<path class="st9" d="M476,595.5l-3.1-0.9l-0.8-6.2c-0.1-0.4-0.6-0.6-0.9-0.4c-1.7,1.5-1.3,6.3-1.3,6.3h-13c-0.7,0-1.3,0.6-1.3,1.3
		c0,0.7,0.5,1.2,1.2,1.3l2.4,0.4c-0.6,0.9,0.2,2.2,0.2,2.2c-0.4,0.8,0.5,2,0.5,2c-0.1,1.7,1.2,2.4,4.9,2.9c1.9,0.3,6.5,2.1,10.5,3.7
		L476,595.5z"/>
	<linearGradient id="SVGID_46_" gradientUnits="userSpaceOnUse" x1="522.0543" y1="586.1656" x2="595.7081" y2="665.1027">
		<stop  offset="0" style="stop-color:#09503E"/>
		<stop  offset="1" style="stop-color:#0C3222"/>
	</linearGradient>
	<path class="st55" d="M551.7,537.4c0,0,27.3,32.9,23.6,90.8c-3.7,57.9-4.3,58.4-4.3,58.4s-16.8-1.8-29.2-11.7
		c-12.4-9.9-27.6-16.7-27.6-16.7l10.1-32.7c0,0-13.1,0.4-22.6-3.6c-9.5-4-29.4-14.6-29.4-14.6s1.7-9.8,3.7-12.8
		c0,0,25.2,7.7,37.9,7.9C513.9,602.4,528.7,556.8,551.7,537.4z"/>
	<path class="st50" d="M549.7,548c-4.2,3.6-8,7.6-11.6,11.7c-3.6,4.2-6.9,8.5-10,13.1l-1.1,1.7c-0.4,0.6-0.8,1.1-1.1,1.7l-2.1,3.5
		c-0.4,0.6-0.7,1.2-1,1.8l-1,1.8l-1,1.8c-0.3,0.6-0.6,1.2-0.9,1.9l-1.8,3.7l-1.6,3.8l-0.8,1.9l-0.6,2c-0.4,1.3-0.9,2.6-1.3,3.9
		c0.5-1.3,1-2.6,1.5-3.8l0.7-1.9l0.9-1.9l1.7-3.7l1.9-3.7c0.3-0.6,0.6-1.2,0.9-1.8l1-1.8l1-1.8c0.3-0.6,0.7-1.2,1-1.8l2.2-3.5
		c0.3-0.6,0.7-1.2,1.1-1.7l1.1-1.7c3.1-4.5,6.3-8.9,9.8-13.2l2.6-3.1c0.9-1,1.8-2.1,2.7-3.1C545.9,551.9,547.8,549.9,549.7,548z"/>
	<path class="st50" d="M561.5,571c-2.2,5.1-4.7,10-7.1,15c-1.3,2.5-2.5,4.9-3.8,7.3c-1.3,2.4-2.7,4.8-4.1,7.2
		c-1.4,2.4-2.9,4.7-4.4,7c-0.8,1.2-1.6,2.3-2.3,3.4c-0.8,1.1-1.6,2.2-2.5,3.3c-1.7,2.2-3.5,4.2-5.5,6.2c-2,1.9-4.2,3.6-6.6,4.9
		c2.6-1.1,4.8-2.8,6.9-4.6c2.1-1.9,4-3.9,5.8-6c1.8-2.1,3.4-4.4,5-6.7c1.6-2.3,3.1-4.6,4.5-7c2.8-4.8,5.4-9.7,7.8-14.7
		C557.4,581.3,559.6,576.2,561.5,571z"/>
	<path class="st50" d="M517.4,602.4c-1.8,0-3.5-0.2-5.3-0.4c-1.7-0.2-3.5-0.4-5.2-0.7c-3.5-0.6-6.9-1.2-10.4-2
		c-3.4-0.7-6.9-1.5-10.3-2.4l-10.3-2.6c1.7,0.6,3.3,1.1,5,1.7c1.7,0.5,3.4,1,5.1,1.5c1.7,0.5,3.4,0.9,5.1,1.4
		c1.7,0.4,3.4,0.8,5.2,1.2c3.5,0.7,7,1.3,10.5,1.8C510.3,602.5,513.9,602.8,517.4,602.4z"/>
	<path class="st8" d="M460.7,645.9c0.6,0.7,1.1,1.4,1.7,2c0.6,0.6,1.2,1.3,1.9,1.8c0.5,0.4,1,0.8,1.5,1.2c-0.4-1-0.8-2.1-1.1-3.1
		c-0.4-1.3-0.7-2.6-0.9-3.9c-0.2-1.3-0.3-2.7-0.3-4c0-1.3,0.1-2.7,0.4-4c-0.1,1.3-0.2,2.7-0.1,4c0.1,1.3,0.2,2.6,0.5,4
		c0.2,1.3,0.5,2.6,0.9,3.9c0.4,1.3,0.8,2.5,1.3,3.8l0.3,0.7l-0.6-0.4c-0.8-0.5-1.4-1.1-2.1-1.7c-0.7-0.6-1.3-1.3-1.9-1.9
		c-0.6-0.7-1.1-1.4-1.7-2.1c-0.5-0.7-1-1.5-1.5-2.2C459.7,644.5,460.2,645.2,460.7,645.9z"/>
	<path class="st12" d="M525.3,483.5c-0.2-0.1-7.6,1.2-10.9,21.8c0,0,3.1,3.2,3.2,3c0.1-0.2,3.4-9.6,3.4-9.6l8.7-10.5l-2.5-5
		L525.3,483.5z"/>
	<g>
		
			<ellipse transform="matrix(0.9998 -1.997463e-002 1.997463e-002 0.9998 -10.0333 10.3886)" class="st48" cx="515" cy="507.4" rx="4.2" ry="5.2"/>
		<path class="st9" d="M514.3,522.2c-0.2-1.3-0.3-2.6-0.3-4c0-3.7,0.7-7.3,1.6-10.3c0.2-0.7,0.3-1.3,0.5-2c0.5-2.7,1.6-5.4,3.2-7.9
			c5.3-8.2,15.6-11.9,24.9-9.1c12.6,3.8,19,17.3,14.4,29.3c1.6-0.2,3.1,0.2,4.2,1.2c2,2,1.6,5.8-0.9,8.3c-2.6,2.6-6.3,3-8.3,0.9
			c-0.3-0.3-0.5-0.6-0.7-0.9c-4.9,9.8-16.3,14.4-26.2,10.4c-4.9-2-8.5-5.6-10.6-10.1c-0.2-0.3-0.3-0.6-0.4-0.9
			C515,525.4,514.5,523.8,514.3,522.2z"/>
		<g>
			<g>
				<path class="st48" d="M533.4,508.1c-0.5,1.2-1,2.3-1.5,3.4c-0.3,0.5-0.6,1.1-0.9,1.6c-0.3,0.5-0.7,1-1.1,1.3l-0.2,0.1
					c-0.1,0-0.1,0.1-0.2,0.1c-0.2,0.1-0.3,0.2-0.5,0.3c-0.1,0.1-0.3,0.2-0.4,0.4c-0.1,0.1-0.2,0.3-0.3,0.5c-0.4,0.7-0.3,1.5,0,2.1
					c0.3,0.6,0.7,1.1,1.3,1.5c0.5,0.4,1.1,0.6,1.7,0.8c-0.5-0.3-1-0.7-1.5-1.1c-0.4-0.4-0.8-0.9-0.9-1.5c-0.2-0.5-0.2-1.1,0.1-1.5
					c0.1-0.1,0.1-0.2,0.2-0.3c0.1-0.1,0.2-0.2,0.3-0.2c0.1-0.1,0.2-0.1,0.3-0.2c0.1-0.1,0.3-0.2,0.5-0.3c0.6-0.4,1-1,1.3-1.5
					c0.3-0.6,0.6-1.1,0.8-1.7C532.9,510.6,533.2,509.4,533.4,508.1z"/>
			</g>
		</g>
		<path class="st49" d="M539.5,512.4c-0.7,1.2,0,2.8,1.5,2.9c0.7,0.1,1.3-0.2,1.7-0.7c0.9-1.2,0.3-2.8-1.1-3.1
			C540.8,511.4,539.9,511.7,539.5,512.4z"/>
		<path class="st49" d="M523.8,507c-0.9,1.2-0.2,2.9,1.3,3.1c0.7,0.1,1.3-0.2,1.7-0.7c0.9-1.2,0.2-2.9-1.3-3.1
			C524.8,506.2,524.2,506.5,523.8,507z"/>
		<path class="st49" d="M536.8,526c-0.6,0.2-1.3,0.3-2,0.4c-0.7,0.1-1.3,0.2-2,0.2c-1.3,0-2.7-0.1-3.9-0.5c-1.3-0.4-2.4-1.1-3.4-1.9
			c-1-0.9-1.9-1.9-2.6-3c0.3,0.6,0.6,1.2,1,1.8c0.4,0.6,0.9,1.1,1.3,1.6c0.5,0.5,1.1,0.9,1.6,1.2c0.6,0.3,1.2,0.6,1.9,0.8
			c1.3,0.4,2.7,0.5,4.1,0.4C534.3,526.9,535.6,526.6,536.8,526z"/>
		<path class="st56" d="M539,507.7c1,0.1,2,0.3,2.9,0.6c0.9,0.3,1.7,0.6,2.5,1.1c0.7,0.5,1.5,1,2.1,1.7c0.3,0.3,0.6,0.7,0.9,1.1
			c0.3,0.4,0.6,0.8,0.9,1.2c0-0.5-0.1-1-0.2-1.5c-0.2-0.5-0.3-1-0.6-1.5c-0.5-0.9-1.3-1.7-2.3-2.3c-0.9-0.6-2-0.9-3.1-0.9
			C541,507.1,539.9,507.2,539,507.7z"/>
		<path class="st56" d="M530.8,505c-0.4-1-1.2-1.7-2-2.4c-0.9-0.6-1.9-1-3-1.2c-1.1-0.1-2.2,0-3.2,0.4c-0.5,0.2-0.9,0.5-1.4,0.8
			c-0.4,0.3-0.8,0.7-1.1,1.1c0.5-0.1,1-0.3,1.5-0.4c0.5-0.1,0.9-0.2,1.4-0.3c0.9-0.2,1.8-0.2,2.7-0.1c0.9,0.1,1.7,0.3,2.6,0.7
			C529.1,504.1,529.9,504.5,530.8,505z"/>
	</g>
	
		<ellipse transform="matrix(0.9998 -1.997463e-002 1.997463e-002 0.9998 -10.0333 10.3886)" class="st48" cx="515" cy="507.4" rx="4.2" ry="5.2"/>
	<path class="st9" d="M514.1,518.2c0-3.7,0.7-7.3,1.6-10.3c0.2-0.7,0.3-1.3,0.5-2c0.5-2.7,1.6-5.4,3.2-7.9
		c5.3-8.2,15.6-11.9,24.9-9.1c12.6,3.8,19,17.3,14.4,29.3c1.6-0.2,3.1,0.2,4.2,1.2c2,2,1.6,5.8-0.9,8.3c-2.6,2.6-6.3,3-8.3,0.9
		c-0.3-0.3-0.5-0.6-0.7-0.9c-4.9,9.8-16.3,14.4-26.2,10.4C519.1,535,513.8,527.3,514.1,518.2z"/>
	<path class="st48" d="M533.4,508.1c-0.5,1.2-1,2.3-1.5,3.4c-0.3,0.5-0.6,1.1-0.9,1.6c-0.3,0.5-0.7,1-1.1,1.3
		c-0.5,0.3-1,0.5-1.2,0.9c-0.5,0.5-0.8,1.6-0.3,2.6c0.3,0.6,0.7,1.1,1.3,1.5c0.5,0.4,1.1,0.6,1.7,0.8c-0.5-0.3-1-0.7-1.5-1.1
		c-0.4-0.4-0.8-0.9-0.9-1.5c-0.2-0.7-0.2-1.4,0.3-1.8c0.2-0.3,0.7-0.5,1.1-0.7c0.6-0.4,1-1,1.3-1.5c0.3-0.6,0.6-1.1,0.8-1.7
		C532.9,510.6,533.2,509.4,533.4,508.1z"/>
	<path class="st49" d="M539.5,512.4c-0.7,1.2,0,2.8,1.5,2.9c0.7,0.1,1.3-0.2,1.7-0.7c0.9-1.2,0.3-2.8-1.1-3.1
		C540.8,511.4,539.9,511.7,539.5,512.4z"/>
	<path class="st49" d="M523.8,507c-0.9,1.2-0.2,2.9,1.3,3.1c0.7,0.1,1.3-0.2,1.7-0.7c0.9-1.2,0.2-2.9-1.3-3.1
		C524.8,506.2,524.2,506.5,523.8,507z"/>
	<path class="st48" d="M536.8,526c-0.6,0.2-1.3,0.3-2,0.4c-0.7,0.1-1.3,0.2-2,0.2c-1.3,0-2.7-0.1-3.9-0.5c-1.3-0.4-2.4-1.1-3.4-1.9
		c-1-0.9-1.9-1.9-2.6-3c0.3,0.6,0.6,1.2,1,1.8c0.4,0.6,0.9,1.1,1.3,1.6c0.5,0.5,1.1,0.9,1.6,1.2c0.6,0.3,1.2,0.6,1.9,0.8
		c1.3,0.4,2.7,0.5,4.1,0.4C534.3,526.9,535.6,526.6,536.8,526z"/>
	<path class="st12" d="M539,507.7c1,0.1,2,0.3,2.9,0.6c0.9,0.3,1.7,0.6,2.5,1.1c0.7,0.5,1.5,1,2.1,1.7c0.3,0.3,0.6,0.7,0.9,1.1
		c0.3,0.4,0.6,0.8,0.9,1.2c0-0.5-0.1-1-0.2-1.5c-0.2-0.5-0.3-1-0.6-1.5c-0.5-0.9-1.3-1.7-2.3-2.3c-0.9-0.6-2-0.9-3.1-0.9
		C541,507.1,539.9,507.2,539,507.7z"/>
	<path class="st12" d="M530.8,505c-0.4-1-1.2-1.7-2-2.4c-0.9-0.6-1.9-1-3-1.2c-1.1-0.1-2.2,0-3.2,0.4c-0.5,0.2-0.9,0.5-1.4,0.8
		c-0.4,0.3-0.8,0.7-1.1,1.1c0.5-0.1,1-0.3,1.5-0.4c0.5-0.1,0.9-0.2,1.4-0.3c0.9-0.2,1.8-0.2,2.7-0.1c0.9,0.1,1.7,0.3,2.6,0.7
		C529.1,504.1,529.9,504.5,530.8,505z"/>
	<path class="st12" d="M555.6,505.6c-0.2-0.3-29.9,0.5-28.8-7.3c0,0-15-3-13.1-8.9c1.9-5.9,8.5-5,8.5-5s-4.3-1.6-3.1-5.9
		c0.4-1.5,2.6-2.8,5.1-3.8c6-2.4,12.6-2.8,18.8-1.3c5.4,1.3,11.9,3.9,16.5,9.3c0,0,0.9-5.2,3.7-3c2.7,2.2,12.1,20.2-0.7,39.4
		c0,0-3-2.7-8.6,0.8C554,519.9,557.7,510.1,555.6,505.6z"/>
</g>
<g>
	<path class="st50" d="M240.1,567.1l-3.5,7.8c-0.3,0.6,0,1.4,0.6,1.7l18.2,8.2c1.3,0.6,2.6-0.9,1.8-2.1l-7-11
		C250.2,571.7,244.7,572.7,240.1,567.1z"/>
	<path class="st50" d="M216.5,566.2l-3.5,7.8c-0.3,0.6,0,1.4,0.6,1.7l18.2,8.2c1.3,0.6,2.6-0.9,1.8-2.1l-7-11
		C226.6,570.8,221.1,571.8,216.5,566.2z"/>
	<linearGradient id="SVGID_47_" gradientUnits="userSpaceOnUse" x1="238.3754" y1="296.1583" x2="170.6263" y2="363.7003">
		<stop  offset="0" style="stop-color:#F59A2B"/>
		<stop  offset="1" style="stop-color:#E65923"/>
	</linearGradient>
	<path class="st57" d="M195.3,314.5c0,0,19.8-3.3,26.5,18.8l-8.2,12.3c0,0-17.2-6.6-17.3-7.3C196.2,337.7,195.3,314.5,195.3,314.5z"
		/>
	<linearGradient id="SVGID_48_" gradientUnits="userSpaceOnUse" x1="237.6811" y1="295.4622" x2="169.9321" y2="363.0041">
		<stop  offset="0" style="stop-color:#F59A2B"/>
		<stop  offset="1" style="stop-color:#E65923"/>
	</linearGradient>
	<path class="st58" d="M163.3,324.5c0,0-5.8,8.7-8.7,12.2c-7.4,8.7-8.4,6-13,13.4c-5,8.1,0.1,13.1,2.9,15.4
		c2.9,2.3-1.9,10.9,3.4,15.7c7,6.3,13.5,0.4,18.3,3.9c4.8,3.5,5.9,8.8,17.3,7.8c11.4-1,11.3-38.2,11.3-38.2s-9.3-19.8-9.7-19.9
		C184.7,334.5,163.3,324.5,163.3,324.5z"/>
	<linearGradient id="SVGID_49_" gradientUnits="userSpaceOnUse" x1="257.6049" y1="315.447" x2="189.8558" y2="382.9891">
		<stop  offset="0" style="stop-color:#F59A2B"/>
		<stop  offset="1" style="stop-color:#E65923"/>
	</linearGradient>
	<path class="st59" d="M221.8,333.3c0,0,0.7,6.8,2.9,10.8c5.7,9.9,8.8,6.7,11.9,14.9c3.4,8.8-2.5,12.9-5.7,14.6
		c-3.2,1.8-0.1,11.1-6.3,14.8c-8,4.9-13.3-2.1-18.7,0.4c-5.4,2.6-7.4,7.5-18.4,4.4c-11-3.1-4-39.7-4-39.7s12.8-17.7,13.2-17.8
		C197.2,335.7,221.8,333.3,221.8,333.3z"/>
	<path class="st9" d="M193,377.4c0,0-19-3.5-27.8-3.2c-8.7,0.3,5.3,23,5.3,23l14.3,0.3c0,0,8.8-9.8,8.2-10.9c-0.6-1.1,0-8.6,0-8.6
		L193,377.4z"/>
	<g>
		<path class="st9" d="M176,359.3l-5,15.2c0,0,4.4,9,17.7,5.1c0,0-1.5-3.2,0.5-9.6C191.4,363.3,176,359.3,176,359.3z"/>
		<path class="st10" d="M176,359.3l-2.4,7.1c1.4,5.2,6,8.7,14.5,9.8c0-1.5,0.2-3.6,1.1-6.2C191.4,363.3,176,359.3,176,359.3z"/>
		<g>
			
				<ellipse transform="matrix(-0.9157 -0.4019 0.4019 -0.9157 262.0989 754.3686)" class="st48" cx="210.2" cy="349.7" rx="3.9" ry="4.9"/>
			<path class="st9" d="M207.2,359.3c1.3-3.2,2-6.6,2.3-9.6c0.1-0.6,0.2-1.3,0.3-1.9c0.5-2.5,0.6-5.2,0.1-8c-1.7-9-9.2-16-18.4-16.9
				c-12.3-1.2-22.7,8.2-23,20.2c-1.3-0.8-2.7-1-4.1-0.4c-2.5,1-3.5,4.4-2.2,7.6c1.3,3.1,4.4,4.8,6.9,3.8c0.3-0.1,0.7-0.3,1-0.6
				c0.8,10.2,8.9,18.4,19,18.5C196.6,372.1,204,367.5,207.2,359.3z"/>
			<path class="st48" d="M194,343.7c-0.4,1.1-0.6,2.3-0.7,3.5c0,0.6,0,1.2,0.1,1.8c0.1,0.6,0.2,1.3,0.6,1.9c0.5,0.6,0.7,0.8,0.8,1.2
				c0.1,0.4-0.1,0.8-0.4,1.2c-0.6,0.8-1.7,1.2-2.9,1.5c1.2,0.2,2.5,0.1,3.5-0.8c0.5-0.5,0.9-1.2,0.8-1.9c-0.1-0.8-0.4-1.2-0.9-1.8
				c-0.2-0.4-0.4-0.9-0.5-1.4c-0.1-0.5-0.2-1.1-0.2-1.7C194.2,346,194.1,344.8,194,343.7z"/>
			<circle class="st49" cx="185.4" cy="345.5" r="1.8"/>
			<circle class="st49" cx="201" cy="346.7" r="1.8"/>
			<path class="st60" d="M186.9,359.4c0,0,2.6-0.9,5.1,0.7c0,0,2.7-1.7,4.7-0.1c0,0-1,3.9-5.3,3.7
				C187,363.4,186.9,359.4,186.9,359.4z"/>
			<path class="st48" d="M184.6,357.9c0.5,0.4,1,0.8,1.5,1.1c0.5,0.3,1.1,0.6,1.7,0.9c1.1,0.5,2.3,0.9,3.6,1c1.2,0.1,2.5,0,3.7-0.4
				c1.2-0.4,2.3-1,3.4-1.7c-0.5,0.4-1,0.8-1.5,1.2c-0.5,0.3-1.1,0.6-1.7,0.9c-0.6,0.2-1.2,0.4-1.9,0.5c-0.6,0.1-1.3,0.1-1.9,0.1
				c-1.3-0.1-2.6-0.5-3.7-1.1C186.5,359.6,185.4,358.9,184.6,357.9z"/>
			<linearGradient id="SVGID_50_" gradientUnits="userSpaceOnUse" x1="234.2331" y1="292.0036" x2="166.4841" y2="359.5456">
				<stop  offset="0" style="stop-color:#F59A2B"/>
				<stop  offset="1" style="stop-color:#E65923"/>
			</linearGradient>
			<path class="st61" d="M189.3,341.3c-0.9-0.3-1.8-0.4-2.7-0.5c-0.9-0.1-1.7-0.1-2.5,0c-0.8,0.1-1.6,0.3-2.4,0.7
				c-0.6,0.2-2,1.1-2.4,1.3c0.4-0.8,1-1.8,1.8-2.3c0.8-0.6,1.8-1,2.8-1.2c1-0.2,2.1,0,3,0.3C187.8,340,188.7,340.5,189.3,341.3z"/>
			<linearGradient id="SVGID_51_" gradientUnits="userSpaceOnUse" x1="243.9385" y1="301.7387" x2="176.1896" y2="369.2805">
				<stop  offset="0" style="stop-color:#F59A2B"/>
				<stop  offset="1" style="stop-color:#E65923"/>
			</linearGradient>
			<path class="st62" d="M197.4,341.9c0.7-0.7,1.6-1.1,2.6-1.3c1-0.2,2-0.2,3,0.1c1,0.3,1.9,0.8,2.6,1.5c0.7,0.6,1.2,1.6,1.5,2.5
				c-0.4-0.2-1.7-1.3-2.2-1.6c-0.7-0.5-1.5-0.8-2.3-1c-0.8-0.2-1.6-0.3-2.5-0.3C199.2,341.7,198.3,341.8,197.4,341.9z"/>
		</g>
	</g>
	<path class="st12" d="M159.9,470.4c0,0-5.6,26.4,19.8,32.7c25.4,6.3,57.6,6.9,57.6,6.9l0.6,61.5l13.4,1.5c0,0,40-82.8-7.1-99.1
		l-43.1-2.5l-17.6-2.4c0,0-17.7-5.6-17.9-4.7C165.3,465,160.3,470.9,159.9,470.4z"/>
	<path class="st54" d="M136.2,469.1c0,0-5.6,26.4,19.8,32.7c25.4,6.3,57.6,6.9,57.6,6.9l0.6,61.5l13.4,1.5c0,0,40-82.8-7.1-99.1
		l-43.1-2.5l-17.6-2.4c0,0-17.7-5.6-17.9-4.7C141.7,463.7,136.6,469.5,136.2,469.1z"/>
	<path class="st63" d="M221.3,510.4c-0.7-0.1-1.5-0.3-2.2-0.4c-0.7-0.2-1.4-0.4-2.1-0.6c-0.4-0.1-0.7-0.2-1.1-0.4
		c0.4-0.1,0.7-0.2,1.1-0.3c0.7-0.2,1.4-0.6,2-1c0.6-0.4,1.2-0.9,1.6-1.4c0.5-0.5,0.9-1.1,1.3-1.7l-0.7,0.8c-0.3,0.2-0.5,0.5-0.8,0.7
		c-0.5,0.5-1.1,0.9-1.7,1.3c-0.6,0.4-1.2,0.7-1.9,0.9c-0.6,0.2-1.4,0.4-2,0.4l-1.2,0l1.1,0.5c0.7,0.3,1.4,0.6,2.2,0.8
		c0.7,0.2,1.5,0.3,2.2,0.5c0.7,0.1,1.5,0.2,2.2,0.3c0.7,0.1,1.5,0.1,2.2,0.1C222.8,510.6,222.1,510.5,221.3,510.4z"/>
	<path class="st9" d="M214.6,414.5c0,0,1.7,43.1,6.6,49.9l-26.7-6.1v-46.9L214.6,414.5z"/>
	<linearGradient id="SVGID_52_" gradientUnits="userSpaceOnUse" x1="136.1378" y1="442.4078" x2="203.2194" y2="442.4078">
		<stop  offset="0" style="stop-color:#09503E"/>
		<stop  offset="1" style="stop-color:#0C3222"/>
	</linearGradient>
	<path class="st64" d="M203.2,420.3c0,0-3.7,10.9-4.4,16.6c-1.7,14.3,0.1,24.4,3.1,32.6c4.2,11.4-29.8,7.3-30.5,6.9
		c-0.7-0.3-29.8-11.6-29.8-11.6l-5.5-16.1v-28.4l1.6-13L203.2,420.3z"/>
	<g>
		<linearGradient id="SVGID_53_" gradientUnits="userSpaceOnUse" x1="235.8416" y1="428.2361" x2="129.7635" y2="513.5958">
			<stop  offset="0" style="stop-color:#C9CD55"/>
			<stop  offset="0.5065" style="stop-color:#659C52"/>
			<stop  offset="1" style="stop-color:#248050"/>
		</linearGradient>
		<polygon class="st65" points="177.1,483.2 175.2,432.1 213,438.9 215,490 		"/>
		<polygon class="st13" points="249.8,429.1 251.8,480.2 215,490 213,438.9 		"/>
	</g>
	<path class="st9" d="M121.9,407.4l21.4,7.3c0,0-3.7,34.2-2.5,39c1,4.1,16.5,12.4,26.3,17c1.6,0.7,3.3,1.1,5.1,0.9
		c5.6-0.5,15.5-1.3,17.1-1.4c2.4-0.2,9.2,0,9.4,0.9c0.2,0.8-5.2-0.1-8.8,0.6c-0.5,0.1-0.2,0.8-0.1,0.8c1.9,0.1,6.7,0.3,8.3,0.8
		c1.9,0.6-4.9,0.1-8.7,0.8c-0.3,0-0.5,0.8-0.3,1c0.4,0.4,2.1,0.8,6.5,1.3c7.4,0.8,0.2,1.7,0.2,1.7s-0.7-0.2-7-1.1
		c-0.2,0-0.5,0.6-0.1,0.9c0.6,0.5,2,1.6,4,2.2c2.4,0.7,0.6,1.3,0.6,1.3s-4.5-1.3-7-1.5c-1.9-0.1-10.8,0.6-14.5,0.8l-0.3-0.6
		c-5-0.1-44.6-1.2-48.4-25.7C118.9,428.9,121.9,407.4,121.9,407.4z"/>
	<linearGradient id="SVGID_54_" gradientUnits="userSpaceOnUse" x1="117.9556" y1="397.2339" x2="223.0662" y2="397.2339">
		<stop  offset="0" style="stop-color:#09503E"/>
		<stop  offset="1" style="stop-color:#0C3222"/>
	</linearGradient>
	<path class="st66" d="M193,377.4c0,0-12.9,15.1-27.8-3.2c0,0-16.2-1.3-28.2,7.2c-11.9,8.5-19.1,27.5-19.1,27.5s21.6,10.9,27,11.4
		h60.1c0,0,9.2-0.7,18-5.2C223.1,415.1,221.5,384.9,193,377.4z"/>
	<path class="st50" d="M200.3,393.2c0.8,2.2,1.6,4.4,2.3,6.7c0.7,2.2,1.3,4.5,1.7,6.8c0.4,1.9,0.6,4.5,0.5,6.9
		c-0.1,2.3-3.5,13.2-4.5,15.4c1.4-1.9,5.2-12.9,5.4-15.3c0.3-2.4,0.1-4.8-0.3-7.2c-0.5-2.4-1.1-4.6-2-6.9
		C202.6,397.3,201.5,395.2,200.3,393.2z"/>
	<path class="st50" d="M152.9,403.1c-0.6,1.9-1.1,3.8-1.6,5.6c-0.9,3.7-1.8,7.2-2.4,11c-1.2,0.1-2.5-0.1-3.6-0.3
		c-6.2-1.1-10.3-2.9-15.9-5.1c-8.3-3.8-7.2-3.4-11.4-5.5c4.9,3.1,7.5,4.5,11,6.2c4.9,2.3,9.5,4.3,16.1,5.5c2.9,0.4,3.7,0.3,4.8,0.2
		c0.4-2.8,0.9-5.6,2.2-11.9l1.2-5.7l1.3-5.7C154,399.4,153.4,401.3,152.9,403.1z"/>
	<linearGradient id="SVGID_55_" gradientUnits="userSpaceOnUse" x1="223.8697" y1="281.6085" x2="156.1207" y2="349.1503">
		<stop  offset="0" style="stop-color:#F59A2B"/>
		<stop  offset="1" style="stop-color:#E65923"/>
	</linearGradient>
	<path class="st67" d="M168.5,343.2c0,0,22.2-5.4,32.8-20.4c0,0,0.2-13.7-20.2-10.6C161.3,315.1,156.7,334.4,168.5,343.2z"/>
</g>
<polygon class="st20" points="249.8,429.1 249.8,429.1 249.8,429.1 211.9,422.3 175.2,432.1 175.1,432.1 175.1,432.1 175.1,432.1 
	175.1,432.1 213,438.9 249.8,429.1 249.8,429.1 "/>
<g>
	<path class="st20" d="M459.9,517.4c-0.4,0.1-0.7-0.1-0.8-0.5c-2.4-8.7-12.5-16.6-26.3-19.8c-16.2-3.8-37.4-1.8-49,12.2l-1.7,0
		c5.4-6.6,13.7-11.7,23.4-13.8c8.7-1.9,18.4-1.8,27.5,0.3c14.3,3.3,24.7,11.6,27.3,20.8C460.5,516.9,460.3,517.3,459.9,517.4
		L459.9,517.4z"/>
</g>
</svg>
