<?xml version="1.0" encoding="utf-8"?>
<!-- Generator: Adobe Illustrator 17.0.0, SVG Export Plug-In . SVG Version: 6.00 Build 0)  -->
<!DOCTYPE svg PUBLIC "-//W3C//DTD SVG 1.1//EN" "http://www.w3.org/Graphics/SVG/1.1/DTD/svg11.dtd">
<svg version="1.1" id="Layer_1" xmlns="http://www.w3.org/2000/svg" xmlns:xlink="http://www.w3.org/1999/xlink" x="0px" y="0px"
	 width="512px" height="512px" viewBox="0 0 512 512" style="enable-background:new 0 0 512 512;" xml:space="preserve">
<g>
	<path style="fill:#FFFFFF;stroke:#000000;stroke-miterlimit:10;" d="M511.99,139.96c-0.04-2.5-1.37-4.88-3.48-6.21L349.91,33.32
		c-0.78-0.49-1.64-0.84-2.54-1.02L186.83,0.16c-7.96-1.6-12.34,9.35-5.48,13.69l71.85,45.49l-57.84,17.17l-49-31.03
		c-2.48-1.57-5.66-1.55-8.12,0.06L78.83,84.43c-7.85,5.14,0,17.93,8.22,12.55l55.37-36.24l144.68,91.61l-121.05,79.24L21.35,139.98
		l32.58-21.33c7.85-5.14-0.01-17.93-8.22-12.55L3.39,133.8C1.31,135.17,0,137.59,0,140.08v264c0,2.57,1.32,4.96,3.49,6.34
		l158.6,100.43c1.8,1.14,4.11,1.46,6.15,0.85l274.92-81.59c9-2.67,5.14-17.17-4.27-14.38L173.6,494.46V246.11L497,150.13v248.36
		l-20.48,6.08c-9,2.67-5.14,17.17,4.27,14.38l25.85-7.67c3.18-0.94,5.37-3.87,5.37-7.19v-264C512,140.04,511.99,140,511.99,139.96
		L511.99,139.96z M343.06,46.73l123.27,78.06l-119.54-23.93L223.52,22.8L343.06,46.73z M304.95,145.91l-92.78-58.75L270.02,70
		l69.93,44.28c0.78,0.49,1.64,0.84,2.54,1.02l130.88,26.2l-260.35,77.26l92.03-60.24c2.13-1.4,3.41-3.78,3.39-6.33
		S307.11,147.27,304.95,145.91z M15,153.71l143.6,90.93v246.25L15,399.96V153.71z"/>
	<path style="fill:#FFFFFF;stroke:#000000;stroke-miterlimit:10;" d="M466.65,293.54c-1.9-1.42-4.35-1.85-6.62-1.18l-253.74,75.51
		c-3.18,0.95-5.36,3.87-5.36,7.19v73.18c0,2.37,1.12,4.6,3.02,6.01c1.31,0.98,2.89,1.49,4.48,1.49c0.72,0,1.44-0.1,2.14-0.31
		l253.74-75.51c3.18-0.95,5.36-3.87,5.36-7.19v-73.18C469.67,297.18,468.55,294.96,466.65,293.54L466.65,293.54z M454.67,367.14
		l-238.74,71.04v-57.54l238.74-71.04V367.14z"/>
	<path style="fill:#FFFFFF;stroke:#000000;stroke-miterlimit:10;" d="M291.68,405.33c4.14,0,7.5-3.36,7.5-7.5v-21.25
		c0-9.39-15-9.81-15,0v21.25C284.18,401.98,287.54,405.33,291.68,405.33z"/>
	<path style="fill:#FFFFFF;stroke:#000000;stroke-miterlimit:10;" d="M391.21,374.83c4.14,0,7.5-3.36,7.5-7.5v-21.25
		c0-9.39-15-9.81-15,0v21.25C383.71,371.47,387.07,374.83,391.21,374.83z"/>
	<path style="fill:#FFFFFF;stroke:#000000;stroke-miterlimit:10;" d="M413.35,368.83c4.14,0,7.5-3.36,7.5-7.5v-21.25
		c0-9.39-15-9.81-15,0v21.25C405.85,365.47,409.2,368.83,413.35,368.83z"/>
	<path style="fill:#FFFFFF;stroke:#000000;stroke-miterlimit:10;" d="M435.48,362.83c4.14,0,7.5-3.36,7.5-7.5v-21.25
		c0-9.39-15-9.81-15,0v21.25C427.98,359.47,431.34,362.83,435.48,362.83z"/>
	<path style="fill:#FFFFFF;stroke:#000000;stroke-miterlimit:10;" d="M235.34,422.1c4.14,0,7.5-3.36,7.5-7.5v-21.25
		c0-9.39-15-9.81-15,0v21.25C227.84,418.74,231.19,422.1,235.34,422.1z"/>
	<path style="fill:#FFFFFF;stroke:#000000;stroke-miterlimit:10;" d="M257.01,416.77c4.14,0,7.5-3.36,7.5-7.5v-21.25
		c0-9.39-15-9.81-15,0v21.25C249.51,413.41,252.87,416.77,257.01,416.77z"/>
	<path style="fill:#FFFFFF;stroke:#000000;stroke-miterlimit:10;" d="M330.84,393.23c4.14,0,7.5-3.36,7.5-7.5v-21.25
		c0-9.39-15-9.81-15,0v21.25C323.34,389.87,326.7,393.23,330.84,393.23z"/>
	<path style="fill:#FFFFFF;stroke:#000000;stroke-miterlimit:10;" d="M352.05,387.8c4.14,0,7.5-3.36,7.5-7.5v-21.25
		c0-9.39-15-9.81-15,0v21.25C344.55,384.44,347.9,387.8,352.05,387.8z"/>
</g>
</svg>
