<?xml version="1.0" encoding="utf-8"?>
<!-- Generator: Adobe Illustrator 17.0.0, SVG Export Plug-In . SVG Version: 6.00 Build 0)  -->
<!DOCTYPE svg PUBLIC "-//W3C//DTD SVG 1.1//EN" "http://www.w3.org/Graphics/SVG/1.1/DTD/svg11.dtd">
<svg version="1.1" id="Capa_1" xmlns="http://www.w3.org/2000/svg" xmlns:xlink="http://www.w3.org/1999/xlink" x="0px" y="0px"
	 width="512px" height="512px" viewBox="0 0 512 512" style="enable-background:new 0 0 512 512;" xml:space="preserve">
<path style="fill:#FFFFFF;stroke:#000000;stroke-miterlimit:10;" d="M376,121H270.9V43.85l92.3-14.01
	c8.19-1.24,13.82-8.89,12.58-17.08S366.89-1.08,358.7,0.17L253.65,16.12c-7.33,1.11-12.75,7.41-12.75,14.83V121H136
	c-24.81,0-45,20.19-45,45v30c0,8.28,6.72,15,15,15h16.32l28.65,287.48c0.76,7.67,7.22,13.51,14.93,13.51H346
	c7.71,0,14.17-5.85,14.93-13.52L389.48,211H406c8.28,0,15-6.72,15-15v-30C421,141.19,400.81,121,376,121z M342.95,376H168.91
	l-5.99-60.05h185.98L342.95,376z M179.48,482l-7.57-76h168.06l-7.55,76H179.48z M351.89,285.95H159.94L152.47,211h206.87
	L351.89,285.95z M391,181c-12.58,0-251.69,0-270,0v-15c0-8.27,6.73-15,15-15h240c8.27,0,15,6.73,15,15V181z"/>
</svg>
