<?xml version="1.0" encoding="utf-8"?>
<!-- Generator: Adobe Illustrator 17.0.0, SVG Export Plug-In . SVG Version: 6.00 Build 0)  -->
<!DOCTYPE svg PUBLIC "-//W3C//DTD SVG 1.1//EN" "http://www.w3.org/Graphics/SVG/1.1/DTD/svg11.dtd">
<svg version="1.1" id="Capa_1" xmlns="http://www.w3.org/2000/svg" xmlns:xlink="http://www.w3.org/1999/xlink" x="0px" y="0px"
	 width="960px" height="560px" viewBox="0 0 960 560" style="enable-background:new 0 0 960 560;" xml:space="preserve">
<g>
	<g>
		<path style="fill:#FFFFFF;stroke:#000000;stroke-miterlimit:10;" d="M330.67,368.67c-30.88,0-56,25.12-56,56s25.12,56,56,56
			s56-25.12,56-56C386.67,393.78,361.55,368.67,330.67,368.67z M330.67,462c-20.59,0-37.33-16.74-37.33-37.33
			c0-20.59,16.74-37.33,37.33-37.33S368,404.08,368,424.67C368,445.26,351.26,462,330.67,462z"/>
	</g>
</g>
<g>
	<g>
		<path style="fill:#FFFFFF;stroke:#000000;stroke-miterlimit:10;" d="M648,368.67c-30.88,0-56,25.12-56,56s25.12,56,56,56
			s56-25.12,56-56S678.88,368.67,648,368.67z M648,462c-20.59,0-37.33-16.74-37.33-37.33c0-20.59,16.74-37.33,37.33-37.33
			c20.59,0,37.33,16.74,37.33,37.33C685.33,445.26,668.59,462,648,462z"/>
	</g>
</g>
<g>
	<g>
		<path style="fill:#FFFFFF;stroke:#000000;stroke-miterlimit:10;" d="M758.52,316.95l-84-130.67c-1.72-2.67-4.68-4.28-7.85-4.28
			H564c-5.16,0-9.33,4.18-9.33,9.33v233.33c0,5.16,4.17,9.33,9.33,9.33h37.33v-18.67h-28V200.67h88.24l79.76,124.08v90.59h-46.67
			V434h56c5.16,0,9.33-4.17,9.33-9.33V322C760,320.22,759.49,318.45,758.52,316.95z"/>
	</g>
</g>
<g>
	<g>
		<path style="fill:#FFFFFF;stroke:#000000;stroke-miterlimit:10;" d="M610.67,303.33V238h74.67v-18.67h-84
			c-5.16,0-9.33,4.18-9.33,9.33v84c0,5.16,4.17,9.33,9.33,9.33h140v-18.67L610.67,303.33L610.67,303.33z"/>
	</g>
</g>
<g>
	<g>
		<path style="fill:#FFFFFF;stroke:#000000;stroke-miterlimit:10;" d="M564,116.67H209.33c-5.15,0-9.33,4.18-9.33,9.33v298.67
			c0,5.16,4.18,9.33,9.33,9.33H284v-18.67h-65.33v-280h336v280H377.33V434H564c5.16,0,9.33-4.17,9.33-9.33V126
			C573.33,120.85,569.16,116.67,564,116.67z"/>
	</g>
</g>
<g>
	<g>
		<rect x="209.33" y="378" style="fill:#FFFFFF;stroke:#000000;stroke-miterlimit:10;" width="56" height="18.67"/>
	</g>
</g>
<g>
	<g>
		<rect x="396" y="378" style="fill:#FFFFFF;stroke:#000000;stroke-miterlimit:10;" width="158.67" height="18.67"/>
	</g>
</g>
<g>
	<g>
		<rect x="713.33" y="378" style="fill:#FFFFFF;stroke:#000000;stroke-miterlimit:10;" width="37.33" height="18.67"/>
	</g>
</g>
<g>
	<g>
		<rect x="237.33" y="154" style="fill:#FFFFFF;stroke:#000000;stroke-miterlimit:10;" width="326.67" height="18.67"/>
	</g>
</g>
<g>
	<g>
		<rect x="321.33" y="415.33" style="fill:#FFFFFF;stroke:#000000;stroke-miterlimit:10;" width="18.67" height="18.67"/>
	</g>
</g>
<g>
	<g>
		<rect x="638.67" y="415.33" style="fill:#FFFFFF;stroke:#000000;stroke-miterlimit:10;" width="18.67" height="18.67"/>
	</g>
</g>
<g>
	<g>
		<rect x="237.33" y="79.33" style="fill:#FFFFFF;stroke:#000000;stroke-miterlimit:10;" width="130.67" height="18.67"/>
	</g>
</g>
<g>
	<g>
		<rect x="200" y="79.33" style="fill:#FFFFFF;stroke:#000000;stroke-miterlimit:10;" width="18.67" height="18.67"/>
	</g>
</g>
</svg>
