<?xml version="1.0" encoding="utf-8"?>
<!-- Generator: Adobe Illustrator 17.0.0, SVG Export Plug-In . SVG Version: 6.00 Build 0)  -->
<!DOCTYPE svg PUBLIC "-//W3C//DTD SVG 1.1//EN" "http://www.w3.org/Graphics/SVG/1.1/DTD/svg11.dtd">
<svg version="1.1" id="Capa_1" xmlns="http://www.w3.org/2000/svg" xmlns:xlink="http://www.w3.org/1999/xlink" x="0px" y="0px"
	 width="960px" height="560px" viewBox="0 0 960 560" style="enable-background:new 0 0 960 560;" xml:space="preserve">
<g>
	<g>
		<path style="fill:#FFFFFF;stroke:#000000;stroke-miterlimit:10;" d="M743.64,440.79l-41.48-234.81
			c-8.59-48.6-50.64-83.88-99.99-83.88h-58.69c8.87-12.61,14.1-27.96,14.1-44.52C557.59,34.8,522.78,0,480,0
			s-77.58,34.8-77.58,77.58c0,16.56,5.23,31.91,14.1,44.52h-58.69c-49.35,0-91.41,35.27-99.99,83.88l-41.48,234.81
			c-5.24,29.64,2.86,59.86,22.2,82.92c19.34,23.06,47.7,36.29,77.8,36.29h327.3c30.1,0,58.45-13.23,77.8-36.28
			C740.79,500.66,748.88,470.43,743.64,440.79z M480,33.06c24.55,0,44.52,19.97,44.52,44.52s-19.97,44.52-44.52,44.52
			s-44.52-19.97-44.52-44.52S455.45,33.06,480,33.06z M696.12,502.47c-13.05,15.55-32.17,24.47-52.46,24.47h-327.3
			c-20.3,0-39.42-8.92-52.46-24.47c-13.04-15.55-18.5-35.94-14.97-55.92l41.48-234.81c5.79-32.78,34.15-56.57,67.44-56.57h244.34
			c33.28,0,61.64,23.79,67.44,56.57l41.48,234.81C714.62,466.53,709.16,486.92,696.12,502.47z"/>
	</g>
</g>
<g>
	<g>
		<path style="fill:#FFFFFF;stroke:#000000;stroke-miterlimit:10;" d="M425.64,341.05l41.42-42.8c6.35-6.56,6.18-17.02-0.38-23.37
			c-6.56-6.35-17.03-6.18-23.38,0.38l-46.33,47.87v-36.37c0-9.13-7.4-16.53-16.53-16.53c-9.13,0-16.53,7.4-16.53,16.53v108.6
			c0,9.13,7.4,16.53,16.53,16.53c9.13,0,16.53-7.4,16.53-16.53v-36.37l46.33,47.87c3.24,3.35,7.56,5.04,11.88,5.04
			c4.14,0,8.28-1.55,11.49-4.65c6.56-6.35,6.73-16.81,0.38-23.37L425.64,341.05z"/>
	</g>
</g>
<g>
	<g>
		<path style="fill:#FFFFFF;stroke:#000000;stroke-miterlimit:10;" d="M579.55,329.19h-24.82c-9.13,0-16.53,7.4-16.53,16.53
			s7.4,16.53,16.53,16.53h8.01c-1.58,9.39-9.76,16.57-19.59,16.57c-10.95,0-19.86-8.91-19.86-19.86v-35.81
			c0-10.95,8.91-19.86,19.86-19.86c6.16,0,11.87,2.79,15.68,7.66c5.62,7.19,16,8.48,23.2,2.86c7.2-5.62,8.48-16.01,2.86-23.2
			c-10.11-12.95-25.32-20.38-41.74-20.38c-29.18,0-52.92,23.74-52.92,52.92v35.81c0,29.18,23.74,52.92,52.92,52.92
			c29.18,0,52.92-23.74,52.92-52.92v-13.23C596.08,336.6,588.68,329.19,579.55,329.19z"/>
	</g>
</g>
</svg>
