<?xml version="1.0" encoding="utf-8"?>
<!-- Generator: Adobe Illustrator 17.0.0, SVG Export Plug-In . SVG Version: 6.00 Build 0)  -->
<!DOCTYPE svg PUBLIC "-//W3C//DTD SVG 1.1//EN" "http://www.w3.org/Graphics/SVG/1.1/DTD/svg11.dtd">
<svg version="1.1" id="Layer_1" xmlns="http://www.w3.org/2000/svg" xmlns:xlink="http://www.w3.org/1999/xlink" x="0px" y="0px"
	 width="512px" height="512px" viewBox="0 0 512 512" style="enable-background:new 0 0 512 512;" xml:space="preserve">
<g>
	<g>
		<path style="fill:#FFFFFF;stroke:#000000;stroke-miterlimit:10;" d="M303.03,61.58c-5.38-1.29-10.77,2.01-12.07,7.38
			c-1.29,5.37,2.01,10.77,7.38,12.07C379.39,100.56,436,172.51,436,256c0,99.25-80.75,180-180,180S76,355.25,76,256
			c0-83.48,56.6-155.44,137.65-174.98c5.37-1.29,8.67-6.7,7.38-12.07c-1.29-5.37-6.7-8.67-12.07-7.38
			c-42.88,10.34-81.73,35.13-109.39,69.79C71.07,167.1,56,210.2,56,256c0,110.28,89.72,200,200,200s200-89.72,200-200
			c0-45.8-15.07-88.9-43.58-124.63C384.76,96.7,345.91,71.92,303.03,61.58z"/>
		<path style="fill:#FFFFFF;stroke:#000000;stroke-miterlimit:10;" d="M505.98,231.95l-11.7-21.83l1.95-26.98
			c1.88-17.3-5.02-34.18-18.48-45.18l-19.42-15.9l-7.64-23.01c-4.28-17.6-17.64-31.74-34.98-36.97l-23.97-7.24L373.38,33.6
			c-10.86-12.78-27.3-19.42-43.98-17.78l-24.88,2.48L280.06,6.03c-15.07-8.03-33.04-8.04-48.12,0l-21.83,11.7l-26.98-1.95
			c-17.3-1.88-34.18,5.02-45.18,18.48l-15.9,19.42l-23.01,7.64c-17.6,4.28-31.74,17.64-36.97,34.98l-7.24,23.97L33.6,138.62
			c-12.78,10.86-19.43,27.3-17.78,43.98l2.48,24.88L6.03,231.94c-8.04,15.07-8.04,33.04,0,48.12l11.7,21.83l-1.95,26.98
			c-1.88,17.3,5.02,34.17,18.48,45.18l19.42,15.9l7.64,23.01c4.28,17.6,17.64,31.74,34.98,36.97l23.97,7.24l18.36,21.22
			c10.86,12.78,27.3,19.43,43.98,17.78l24.88-2.48l24.46,12.27c7.54,4.02,15.8,6.03,24.07,6.03c8.26,0,16.52-2.01,24.05-6.03
			l21.83-11.7l26.98,1.95c17.3,1.87,34.17-5.02,45.18-18.48l15.9-19.42l23.01-7.64c17.59-4.28,31.73-17.64,36.97-34.98l7.24-23.97
			l21.22-18.36c12.78-10.86,19.43-27.3,17.79-43.98l-2.48-24.88l12.27-24.46C514.01,264.99,514.02,247.02,505.98,231.95
			L505.98,231.95z M488.28,270.73c-0.04,0.08-0.09,0.16-0.13,0.25l-13.63,27.17c-0.85,1.69-1.2,3.59-1.01,5.48l2.77,27.75
			c1,10.15-3.05,20.16-10.9,26.83l-23.48,20.31c-1.43,1.24-2.48,2.86-3.03,4.67l-8.08,26.74c-3.22,10.66-11.97,18.86-22.84,21.4
			c-0.3,0.07-0.59,0.15-0.88,0.25l-26.17,8.69c-1.8,0.6-3.39,1.69-4.59,3.16l-17.74,21.67c-6.74,8.24-17.09,12.44-27.68,11.25
			c-0.13-0.02-0.27-0.03-0.4-0.04l-30.06-2.17c-1.89-0.14-3.78,0.27-5.45,1.16l-24.36,13.06c-9.19,4.9-20.16,4.88-29.36-0.06
			c-0.08-0.04-0.16-0.09-0.25-0.13l-27.16-13.63c-1.4-0.7-2.93-1.06-4.48-1.06c-0.33,0-0.66,0.02-0.99,0.05l-27.75,2.77
			c-10.15,1-20.16-3.05-26.83-10.9l-20.31-23.48c-1.24-1.43-2.86-2.48-4.67-3.03l-26.75-8.08c-10.67-3.22-18.86-11.97-21.4-22.84
			c-0.07-0.3-0.15-0.59-0.25-0.88l-8.69-26.17c-0.6-1.8-1.69-3.39-3.15-4.59l-21.67-17.74c-8.24-6.74-12.44-17.09-11.25-27.68
			c0.01-0.13,0.03-0.26,0.04-0.4l2.17-30.06c0.14-1.89-0.27-3.78-1.16-5.45l-13.06-24.36c-4.9-9.19-4.88-20.16,0.06-29.36
			c0.04-0.08,0.09-0.16,0.13-0.24l13.63-27.17c0.85-1.69,1.2-3.59,1.01-5.48l-2.76-27.75c-1-10.15,3.05-20.16,10.9-26.83
			l23.48-20.31c1.43-1.24,2.48-2.86,3.03-4.67l8.08-26.75c3.22-10.66,11.97-18.86,22.84-21.4c0.3-0.07,0.59-0.15,0.88-0.25
			l26.17-8.69c1.8-0.6,3.39-1.69,4.59-3.15l17.74-21.67c6.74-8.24,17.09-12.44,27.68-11.25c0.13,0.01,0.26,0.03,0.4,0.04l30.06,2.17
			c1.88,0.13,3.78-0.27,5.45-1.16l24.36-13.06c9.19-4.9,20.16-4.88,29.36,0.06c0.08,0.04,0.16,0.09,0.25,0.13l27.17,13.63
			c1.69,0.85,3.59,1.2,5.48,1.01l27.75-2.76c10.15-1,20.16,3.05,26.83,10.9l20.31,23.48c1.24,1.43,2.86,2.48,4.67,3.03l26.74,8.08
			c10.66,3.22,18.86,11.97,21.4,22.84c0.07,0.3,0.15,0.59,0.25,0.88l8.69,26.17c0.6,1.8,1.69,3.39,3.15,4.59l21.67,17.74
			c8.24,6.74,12.44,17.08,11.25,27.68c-0.02,0.13-0.03,0.26-0.04,0.4l-2.17,30.06c-0.14,1.89,0.27,3.78,1.16,5.45l13.06,24.36
			C493.24,250.57,493.22,261.54,488.28,270.73L488.28,270.73z"/>
		<path style="fill:#FFFFFF;stroke:#000000;stroke-miterlimit:10;" d="M212.6,201.52c-1.6-3.38-5.04-5.72-9.03-5.72h-52.84
			c-5.52,0-10,4.48-10,10v151.37c0,5.52,4.48,10,10,10h52.84c4.15,0,7.7-2.52,9.22-6.11c7.62,1.07,15.48,3.24,23.65,5.5
			c12.29,3.4,25,6.92,38.21,6.92h57.73c17.85,0,32.31-9.46,38.68-25.31c3.11-7.72,3.65-15.74,1.83-22.45
			c3.32-2.98,6.13-6.7,8.25-11.04c4.3-8.79,5.16-18.68,2.72-27.01c4.54-4.39,7.93-10.19,9.71-17.02c1.66-6.39,1.63-12.7,0.15-18.16
			c9.02-5.31,15.1-14.95,15.1-25.81c0-8.52-3.32-16.37-9.34-22.1c-5.78-5.51-13.49-8.54-21.69-8.54l-81.37,0
			c-6.18-7.76-8.11-18.28-4.59-26.75c7.22-17.39,6.78-32.1-1.45-47.72c-6.11-11.59-22.52-23.13-36.32-21.16
			c-8.34,1.19-14.38,7.09-16.15,15.77c-0.52,2.56-0.66,5.32-0.83,8.51c-0.41,7.88-0.97,18.68-7.77,31.72
			c-4.61,8.84-6.15,17.93-7.51,25.95C219.85,193.86,218.91,199.39,212.6,201.52L212.6,201.52z M160.74,215.79h32.84v131.37h-32.84
			V215.79z M241.52,185.71c1.16-6.88,2.37-14,5.52-20.03c8.82-16.9,9.57-31.32,10.02-39.94c0.12-2.29,0.23-4.46,0.45-5.55
			c0-0.01,0-0.01,0.01-0.02c3.47,0.05,12.01,4.73,15.17,10.74c5.48,10.4,5.66,18.72,0.68,30.72c-4.49,10.82-4.16,23.37,0.29,34.53
			c-4.86,0.68-8.61,4.84-8.61,9.89c0,5.52,4.48,10,10,10l102.75,0c3.05,0,5.85,1.07,7.9,3.02c1.43,1.36,3.13,3.79,3.13,7.62
			c0,5.36-4.92,10-10.74,10.13l-25.74,0.56c-5.52,0.12-9.9,4.69-9.78,10.21c0.12,5.45,4.57,9.78,9.99,9.78c0.07,0,0.15,0,0.22,0
			l21.44-0.47c0.7,1.98,1.06,5.76-0.41,10.09c-1.25,3.68-4.62,9.86-13.08,9.86c-5.52,0-10,4.48-10,10s4.48,10,10,10
			c1.52,0,3-0.09,4.46-0.28c0.12,2.83-0.46,6.14-2.01,9.32c-1.84,3.75-5.46,8.23-12.33,8.23c-5.52,0-10,4.48-10,10s4.48,10,10,10
			c1.04,0,2.06-0.05,3.07-0.14c-0.03,1.92-0.42,4.32-1.51,6.94c-1.57,3.77-6.66,12.55-20.04,12.55h-57.73
			c-10.49,0-21.36-3.01-32.87-6.2c-9.16-2.54-18.55-5.13-28.21-6.29V221.76C236.09,217.68,239.19,199.45,241.52,185.71z"/>
		<path style="fill:#FFFFFF;stroke:#000000;stroke-miterlimit:10;" d="M256,76c5.52,0,10-4.48,10-10s-4.48-10-10-10H256
			c-5.52,0-10,4.48-10,10S250.48,76,256,76z"/>
	</g>
</g>
</svg>
